<?xml version="1.0" encoding="UTF-8" standalone="no"?>
<!-- Created with Inkscape (http://www.inkscape.org/) -->

<svg
   width="242.04623mm"
   height="236.70702mm"
   viewBox="0 0 242.04623 236.70702"
   version="1.1"
   id="svg1"
   xml:space="preserve"
   xmlns:inkscape="http://www.inkscape.org/namespaces/inkscape"
   xmlns:sodipodi="http://sodipodi.sourceforge.net/DTD/sodipodi-0.dtd"
   xmlns:xlink="http://www.w3.org/1999/xlink"
   xmlns="http://www.w3.org/2000/svg"
   xmlns:svg="http://www.w3.org/2000/svg"><sodipodi:namedview
     id="namedview1"
     pagecolor="#ffffff"
     bordercolor="#666666"
     borderopacity="1.0"
     inkscape:showpageshadow="2"
     inkscape:pageopacity="0.0"
     inkscape:pagecheckerboard="0"
     inkscape:deskcolor="#d1d1d1"
     inkscape:document-units="mm" /><defs
     id="defs1"><linearGradient
       inkscape:collect="always"
       id="linearGradient4176"><stop
         style="stop-color:#068770;stop-opacity:1;"
         offset="0"
         id="stop4178" /><stop
         style="stop-color:#a7a5a6;stop-opacity:0;"
         offset="1"
         id="stop4180" /></linearGradient><linearGradient
       inkscape:collect="always"
       xlink:href="#linearGradient4176"
       id="linearGradient4182"
       x1="159.48534"
       y1="-368.23074"
       x2="559.06055"
       y2="-1070.6394"
       gradientUnits="userSpaceOnUse"
       gradientTransform="matrix(0.13023551,0,0,0.13023551,551.30935,302.62188)" /></defs><g
     inkscape:label="Layer 1"
     inkscape:groupmode="layer"
     id="layer1"
     transform="translate(-248.38848,-176.24851)"><rect
       style="fill:#f9f9f9;stroke-width:0.264999;stroke-dasharray:1.06, 0.264999"
       id="rect12"
       width="242.04623"
       height="236.707"
       x="248.38849"
       y="176.2485" /><path
       style="fill:#000000;stroke-width:1"
       d="m 264.21225,401.29503 c -0.49943,-0.42024 -0.90804,-0.93528 -0.90804,-1.14455 0,-0.20925 -0.29883,-0.57887 -0.66405,-0.82137 -0.66405,-0.44091 -0.66405,-0.44091 -0.66405,-17.83632 0,-17.3954 0,-17.3954 1.28314,-18.92799 0.70574,-0.84292 1.63541,-1.63147 2.06595,-1.75232 0.43053,-0.12086 8.44148,-0.21973 17.80212,-0.21973 17.01934,0 17.01934,0 17.70805,0.65258 2.88999,2.73838 2.60709,0.54245 2.60709,20.23708 0,17.72834 0,17.72834 -1.50108,19.15251 -1.50108,1.42417 -1.50108,1.42417 -19.16108,1.42417 -17.66,0 -17.66,0 -18.56805,-0.76406 z m 32.44213,-19.89533 c 0,-13.87131 0,-13.87131 -13.87132,-13.87131 -13.87131,0 -13.87131,0 -13.87131,13.87131 0,13.87131 0,13.87131 13.87131,13.87131 13.87132,0 13.87132,0 13.87132,-13.87131 z m -20.2167,8.8066 c -0.32464,-0.16644 -1.12151,-0.98752 -1.7708,-1.82462 -1.18054,-1.522 -1.18054,-1.522 -1.18054,-7.24119 0,-5.60363 0.0134,-5.7281 0.66405,-6.16003 0.36523,-0.24247 0.66405,-0.61205 0.66405,-0.8213 0,-0.20927 0.3861,-0.70536 0.858,-1.10243 0.74569,-0.62745 1.27095,-0.74962 4.0127,-0.93328 1.73508,-0.11623 4.46371,-0.11852 6.06362,-0.006 2.90892,0.20623 2.90892,0.20623 4.54619,1.72997 1.63727,1.52374 1.63727,1.52374 1.61654,7.41512 -0.0114,3.24025 -0.11248,6.12298 -0.22459,6.40605 -0.11211,0.28308 -0.84769,1.04673 -1.63463,1.69703 -1.43079,1.18233 -1.43079,1.18233 -7.22755,1.16236 -3.33705,-0.0115 -6.04723,-0.14839 -6.38704,-0.32259 z m 32.45135,11.12838 c -0.72442,-0.72442 -0.72442,-0.72442 -0.72442,-8.28646 0,-7.56205 0,-7.56205 0.88902,-8.45106 0.84359,-0.8436 0.99426,-0.88417 2.94817,-0.7939 1.20765,0.0558 2.068,-0.0249 2.08058,-0.19503 0.0118,-0.15958 -0.0688,-1.25303 -0.17907,-2.42988 -0.2005,-2.13973 -0.2005,-2.13973 -1.92275,-2.13973 -2.95959,0 -3.81595,-0.79281 -3.81595,-3.53284 0,-1.78903 1.05672,-3.25523 2.34612,-3.25523 0.44988,0 1.43416,-0.0845 2.18727,-0.18769 1.34095,-0.1838 1.36935,-0.20976 1.37255,-1.25432 0.002,-0.85094 0.28609,-1.38577 1.40188,-2.64477 1.23835,-1.39727 1.5593,-1.59615 2.80053,-1.7354 1.40189,-0.15728 1.40189,-0.15728 1.40189,-2.01462 0,-1.55401 0.12134,-2.00155 0.74296,-2.74032 0.89639,-1.0653 2.48673,-1.41447 4.2634,-0.93606 1.83051,0.4929 2.07686,1.31482 2.07686,6.92912 0,4.58406 0,4.58406 1.03868,4.58406 1.16773,0 3.68219,1.71264 4.24512,2.89143 0.21464,0.44948 0.32374,3.95553 0.32374,10.40349 0,9.72554 0,9.72554 1.90449,9.72554 2.30314,0 3.25287,0.38881 3.72317,1.52422 0.50507,1.21934 0.18292,4.3855 -0.49679,4.88251 -0.39491,0.28877 -2.40084,0.38135 -8.26204,0.38135 -4.25728,0 -7.95551,-0.0825 -8.21827,-0.18332 -0.26277,-0.10084 -0.67206,-0.55908 -0.90954,-1.01831 -0.5046,-0.9758 -0.57577,-3.55361 -0.11099,-4.01844 0.50152,-0.50151 0.002,-0.59439 -2.44302,-0.45453 -2.26974,0.1298 -2.26974,0.1298 -2.4746,2.47816 -0.12231,1.40212 -0.37571,2.51922 -0.62889,2.7724 -0.29298,0.29299 -1.10578,0.42404 -2.62989,0.42404 -1.94849,0 -2.29036,-0.0846 -2.93026,-0.72441 z m 14.63388,-6.12175 c 1.90705,-0.0895 1.90705,-0.0895 1.98558,-8.13189 0.0785,-8.04242 0.0785,-8.04242 -2.28729,-8.04242 -2.36582,0 -2.36582,0 -2.36582,2.18082 0,3.20283 -0.38219,3.58059 -3.59544,3.5536 -2.46581,-0.0207 -2.46581,-0.0207 -2.20131,2.25033 0.2645,2.27103 0.2645,2.27103 2.35153,2.42036 1.81462,0.12983 2.17809,0.25519 2.78469,0.96041 0.59387,0.69042 0.69157,1.1018 0.6567,2.76519 -0.0589,2.80841 -0.0578,2.81535 0.38407,2.44866 0.20913,-0.17357 1.2384,-0.35584 2.28729,-0.40506 z m 20.13248,6.26212 c -0.69468,-0.6472 -1.14051,-2.79093 -0.80849,-3.8876 0.11542,-0.38126 0.55182,-1.05843 0.96975,-1.50482 0.64271,-0.68645 0.99959,-0.81162 2.31404,-0.81162 2.95366,0 3.81697,1.0036 3.58788,4.17085 -0.16762,2.31736 -0.54972,2.61723 -3.33484,2.61723 -1.68604,0 -2.22537,-0.11545 -2.72834,-0.58404 z m 11.49442,-0.0911 c -0.58989,-0.62792 -0.63997,-1.02559 -0.71549,-5.68133 -0.0812,-5.00616 -0.0812,-5.00616 -4.21309,-5.16064 -2.27253,-0.085 -4.33109,-0.26034 -4.57458,-0.38972 -0.82564,-0.43871 -2.56605,-3.01461 -2.76948,-4.09895 -0.18898,-1.00738 -0.28907,-1.09188 -1.51045,-1.27504 -1.29067,-0.19354 -1.76721,-0.54451 -3.5438,-2.61001 -0.67038,-0.7794 -0.73516,-1.09848 -0.73516,-3.62111 0,-2.74372 0.009,-2.7782 1.10675,-4.20774 0.60871,-0.79274 1.41183,-1.58703 1.7847,-1.76509 0.37286,-0.17807 1.96659,-0.32228 3.54161,-0.32049 2.86367,0.003 2.86367,0.003 4.4418,1.40189 1.39727,1.23833 1.59616,1.55929 1.7354,2.80051 0.15163,1.35155 0.1916,1.40189 1.11332,1.40189 0.67536,0 1.40213,0.35519 2.47556,1.20988 1.68399,1.34081 2.09918,1.93932 2.09918,3.02603 0,1.68199 -0.0483,1.66678 5.28835,1.66678 4.51885,0 4.98279,0.0491 5.56238,0.5891 0.76577,0.71343 1.08703,2.22518 0.83168,3.91366 -0.30669,2.02795 -0.44885,2.12569 -3.26028,2.24183 -2.51944,0.10407 -2.51944,0.10407 -2.51944,5.23862 0,6.31 -0.002,6.3151 -3.3426,6.3151 -1.8711,0 -2.24742,-0.0909 -2.79636,-0.67517 z m 11.58552,-0.0493 c -0.61954,-0.61953 -0.72442,-1.00031 -0.72442,-2.62997 0,-1.76552 0.0667,-1.9617 0.90805,-2.66962 0.88785,-0.74707 1.00574,-0.76407 5.29853,-0.76407 2.63449,0 4.68316,0.13335 5.12226,0.33341 1.03354,0.47092 1.45552,1.71468 1.30197,3.83743 -0.1879,2.59766 -0.23434,2.61724 -6.20767,2.61724 -4.88784,0 -4.98688,-0.0126 -5.69872,-0.72442 z m 23.54416,0.52689 c -1.00316,-0.40362 -1.77665,-4.45826 -0.94816,-4.97029 0.69584,-0.43006 -0.12321,-0.65739 -1.86482,-0.51759 -3.63404,0.29171 -4.3333,-0.70115 -4.33616,-6.15685 -0.002,-3.90387 0.1691,-4.77552 1.12554,-5.73195 0.68964,-0.68965 0.95246,-0.75372 2.84149,-0.69265 2.08157,0.0673 2.08157,0.0673 1.98226,-1.7246 -0.0547,-0.98554 0.0439,-2.05953 0.219,-2.38664 0.41432,-0.77416 0.22781,-0.82115 -2.54948,-0.64237 -2.29236,0.14757 -2.29236,0.14757 -2.44786,1.69435 -0.13051,1.2981 -0.3203,1.69177 -1.18055,2.44874 -1.82563,1.60645 -2.49104,1.76025 -7.58228,1.75256 -5.41121,-0.008 -6.74704,-0.24181 -7.59174,-1.32777 -0.33424,-0.42971 -0.90654,-1.12142 -1.27177,-1.53714 -0.61775,-0.70316 -0.66405,-1.0306 -0.66405,-4.69707 0,-3.94122 0,-3.94122 -1.40188,-3.94286 -3.37359,-0.004 -4.66795,-1.11244 -4.43379,-3.79708 0.0655,-0.75137 0.17688,-1.54381 0.24742,-1.76099 0.10029,-0.30869 -0.41918,-0.3954 -2.38037,-0.39734 -1.37976,-10e-4 -2.59897,0.01 -2.70939,0.026 -0.11044,0.0156 -0.0731,0.46006 0.0831,0.98761 0.35584,1.20251 0.054,3.6369 -0.52244,4.21333 -0.30567,0.30567 -1.09092,0.43504 -2.64087,0.43504 -1.94849,0 -2.29036,-0.0846 -2.93026,-0.72442 -0.6039,-0.60391 -0.72443,-1.01144 -0.72443,-2.44963 0,-0.94885 0.15938,-1.88456 0.35416,-2.07935 0.1948,-0.19478 0.29441,-0.36292 0.22136,-0.37362 -0.0731,-0.0111 -1.24031,-0.0439 -2.59392,-0.0737 -2.16106,-0.0477 -2.52673,-0.13538 -2.99933,-0.71921 -0.71003,-0.87713 -0.99905,-2.71153 -0.63497,-4.03014 0.29271,-1.06008 0.29271,-1.06008 -1.87287,-1.06008 -1.19106,0 -2.34726,-0.0697 -2.5693,-0.15493 -0.32247,-0.12374 -0.40158,0.34897 -0.39306,2.34897 0.0136,3.19098 -0.24121,3.49764 -3.03741,3.65564 -1.81281,0.1024 -2.09916,0.0398 -2.87661,-0.6289 -0.79131,-0.68066 -0.86339,-0.90439 -0.86339,-2.67988 0,-1.72086 0.0908,-2.02807 0.81341,-2.75063 0.70608,-0.70608 1.03707,-0.81064 2.50863,-0.79243 0.93238,0.0115 1.89445,0.0757 2.13794,0.14264 0.24348,0.0669 0.42942,-0.0443 0.41319,-0.24724 -0.0163,-0.2029 -0.0494,-1.28148 -0.0737,-2.39684 -0.0443,-2.02791 -0.0443,-2.02791 -1.504,-2.22155 -1.31399,-0.17431 -1.60129,-0.35942 -2.87756,-1.85403 -1.41783,-1.66039 -1.41783,-1.66039 -1.41783,-4.60451 0,-2.72582 0.0492,-2.97679 0.66405,-3.38484 0.36523,-0.24239 0.66405,-0.61193 0.66405,-0.82119 0,-0.20925 0.40863,-0.72429 0.90805,-1.14453 0.88175,-0.74195 1.02706,-0.76408 5.01728,-0.76408 4.10924,0 4.10924,0 4.10924,-2.36106 0,-2.36108 0,-2.36108 -0.86619,-2.36108 -1.40572,0 -2.19067,-0.44564 -3.41348,-1.93792 -0.77213,-0.94228 -1.20706,-1.80664 -1.31466,-2.61267 -0.16079,-1.20453 -0.16079,-1.20453 -4.29266,-1.3521 -2.27255,-0.0812 -4.33111,-0.28037 -4.57459,-0.4427 -0.24349,-0.16232 -0.94074,-0.91513 -1.54945,-1.67291 -0.81647,-1.0164 -1.10676,-1.65503 -1.10676,-2.43485 0,-1.05709 0,-1.05709 -5.14456,-1.05709 -5.14457,0 -5.14457,0 -5.35215,2.37973 -0.27195,3.11755 -0.44823,3.28027 -3.46706,3.20047 -2.37593,-0.0628 -2.37593,-0.0628 -2.36435,2.56469 0.009,2.11568 0.0917,2.5989 0.42258,2.4806 0.22605,-0.0808 1.25293,-0.14719 2.28196,-0.14756 2.54009,-9e-4 2.99875,0.54247 2.99875,3.55256 0,1.53384 -0.12932,2.28905 -0.44622,2.60596 -0.61218,0.61218 -2.95072,0.9199 -4.16311,0.54782 -0.5487,-0.16841 -1.04207,-0.21905 -1.09637,-0.11255 -0.0543,0.10652 -0.0399,1.22292 0.032,2.48092 0.1307,2.2873 0.1307,2.2873 2.45952,2.2873 2.32881,0 2.32881,0 2.32881,-1.13744 0,-0.75982 0.22047,-1.38733 0.66406,-1.8901 0.36523,-0.41395 0.86326,-1.01144 1.10674,-1.32774 0.82471,-1.07134 1.63214,-1.25228 5.58815,-1.25228 3.42576,0 3.92019,0.064 4.42996,0.57381 0.72358,0.72358 1.02584,2.29286 0.77011,3.99819 -0.27182,1.81266 -0.93139,2.21609 -3.6231,2.21609 -2.14783,0 -2.14783,0 -2.14783,0.98893 0,1.47466 -0.52841,2.71497 -1.34222,3.15051 -0.39804,0.21302 -0.72372,0.50447 -0.72372,0.64764 0,0.35676 -1.88359,1.11561 -2.76911,1.11561 -0.68617,0 -0.73245,0.11392 -0.92914,2.28729 -0.27711,3.06188 -0.53364,3.32026 -3.29655,3.32026 -1.92231,0 -2.26717,-0.086 -2.90561,-0.72442 -0.63205,-0.63205 -0.72442,-0.98958 -0.72442,-2.80379 0,-2.07934 0,-2.07934 -4.53054,-2.07934 -2.4918,0 -4.93049,-0.13942 -5.41931,-0.30983 -1.11186,-0.3876 -1.56224,-1.34974 -1.55382,-3.31946 0.01,-2.44565 1.15595,-3.45393 3.92397,-3.45393 1.60825,0 1.60825,0 1.74692,-1.84459 0.0763,-1.01453 0.23327,-2.06273 0.34891,-2.32934 0.18602,-0.42889 -0.0668,-0.47989 -2.19501,-0.44269 -2.29308,0.04 -2.43852,0.003 -3.11831,-0.78604 -0.578,-0.67124 -0.71304,-1.15443 -0.71304,-2.55122 0,-1.50693 0.11099,-1.84197 0.88475,-2.67026 0.85253,-0.91264 0.95733,-0.94334 2.87757,-0.84284 2.15207,0.11264 2.23955,0.0478 1.95818,-1.45207 -0.0997,-0.53135 -0.0472,-1.49422 0.11665,-2.13972 0.2979,-1.17362 0.2979,-1.17362 -4.07509,-1.17362 -4.27397,0 -4.39354,-0.0173 -5.28103,-0.76407 -0.49943,-0.42023 -0.90805,-0.89698 -0.90805,-1.05944 0,-0.16246 -0.29882,-0.53705 -0.66406,-0.83243 -0.61351,-0.49619 -0.67144,-0.81744 -0.76124,-4.22211 -0.0971,-3.68506 -0.0971,-3.68506 0.78948,-4.67511 0.86038,-0.96068 0.95078,-0.98903 3.04854,-0.95592 2.16186,0.0341 2.16186,0.0341 2.16186,-2.42876 0,-2.46289 0,-2.46289 -1.5098,-2.28544 -1.99113,0.23401 -3.53711,-0.28601 -4.10289,-1.3801 -0.49485,-0.95695 -0.62242,-6.55206 -0.17596,-7.71814 0.14388,-0.37579 0.85042,-1.31411 1.57009,-2.08514 1.30847,-1.40189 1.30847,-1.40189 5.35935,-1.40189 3.90743,0 4.07655,0.0257 4.77531,0.72442 0.63205,0.63205 0.72442,0.98958 0.72442,2.80377 0,2.86847 -0.40753,3.25989 -3.39404,3.25989 -2.21351,0 -2.21351,0 -2.21351,1.58635 0,0.87249 -0.077,1.97129 -0.17109,2.44178 -0.17108,0.85543 -0.17108,0.85543 2.04801,0.74337 2.06201,-0.10407 2.27258,-0.0586 2.97486,0.64372 0.6853,0.68531 0.75577,0.97649 0.75577,3.12295 0,2.36719 0,2.36719 0.75705,2.07936 0.41638,-0.1583 1.47886,-0.28783 2.36107,-0.28783 1.60403,0 1.60403,0 1.60403,-0.99441 0,-0.72031 0.33351,-1.41329 1.20987,-2.51397 1.40721,-1.76737 1.92759,-2.09916 3.29224,-2.09916 0.9993,0 0.9993,0 1.27896,-2.36108 0.27966,-2.36108 0.27966,-2.36108 -1.93908,-2.37046 -3.05059,-0.0129 -3.84199,-0.73185 -3.84199,-3.49018 0,-1.16087 0.16488,-1.66838 0.77927,-2.39853 0.75945,-0.90256 0.83638,-0.92444 3.02513,-0.86054 1.23522,0.036 2.22709,0.0112 2.20416,-0.0557 -0.0229,-0.0667 -0.13814,-1.15058 -0.25602,-2.4086 -0.21434,-2.28729 -0.21434,-2.28729 -1.93659,-2.28729 -2.99456,0 -3.81595,-0.7852 -3.81595,-3.64784 0,-1.33446 0.12263,-1.67162 0.86757,-2.38532 0.73799,-0.70704 1.17877,-0.85345 2.95134,-0.98027 2.08377,-0.1491 2.08377,-0.1491 2.08377,-1.23615 0,-0.90545 0.26314,-1.36981 1.57494,-2.77936 1.57494,-1.69228 1.57494,-1.69228 8.70065,-1.60326 7.12571,0.089 7.12571,0.089 6.94629,-1.43522 -0.099,-0.84016 -0.0369,-1.9329 0.13802,-2.43485 0.31745,-0.91064 0.31745,-0.91064 -2.04168,-0.91064 -2.11126,0 -2.43526,-0.0761 -3.08356,-0.72442 -0.72443,-0.72443 -0.72443,-0.72443 -0.72443,-7.48282 0,-6.75841 0,-6.75841 0.73516,-7.61313 2.02962,-2.35966 2.08302,-2.39012 4.57178,-2.60721 2.11383,-0.1844 3.9449,-0.091 5.82901,0.29721 1.06192,0.21882 1.62549,1.68645 1.50884,3.92924 -0.0847,1.62672 -0.0277,1.93163 0.34112,1.82479 1.31389,-0.38067 3.24589,-0.32989 4.09184,0.10753 1.01704,0.52592 1.18135,0.97892 1.29218,3.56232 0.076,1.7708 0.076,1.7708 5.15979,1.91837 4.7971,0.13924 5.12168,0.18549 5.75512,0.81999 0.57437,0.57534 0.66889,0.97041 0.65466,2.73609 -0.0249,3.085 0.0348,3.05424 -6.26458,3.23201 -5.22903,0.14756 -5.22903,0.14756 -5.22903,2.36106 0,2.21352 0,2.21352 5.16485,2.21352 5.16486,0 5.16486,0 5.31242,-1.1929 0.0812,-0.65608 0.31158,-1.38654 0.51203,-1.62324 0.20046,-0.23669 0.7082,-0.85946 1.12831,-1.38396 1.06301,-1.32711 2.51506,-1.65274 6.63052,-1.48688 3.40115,0.13707 3.40115,0.13707 3.28575,-1.90551 -0.10798,-1.91103 -0.0621,-2.0982 0.71215,-2.90638 0.74504,-0.77764 1.01476,-0.8638 2.70416,-0.8638 1.59888,0 1.98375,0.10719 2.60099,0.72442 0.63203,0.63204 0.72442,0.98957 0.72442,2.80377 0,2.948 -0.44537,3.35598 -3.51068,3.216 -2.27036,-0.10362 -2.27036,-0.10362 -2.25741,2.42965 0.0129,2.53332 0.0129,2.53332 2.12883,2.39758 1.97069,-0.12643 2.16811,-0.0836 2.87755,0.62595 0.76171,0.7617 0.76171,0.7617 0.76171,13.30443 0,8.56499 -0.10397,12.77085 -0.32774,13.26203 -0.18026,0.39562 -0.6451,0.88914 -1.03297,1.09673 -0.38788,0.20759 -0.70524,0.49458 -0.70524,0.63776 0,0.85603 -3.77878,1.38694 -6.57854,0.92425 -1.51455,-0.25028 -3.7304,-2.77682 -3.96422,-4.52002 -0.15979,-1.19132 -0.15979,-1.19132 -4.03145,-1.19242 -4.16122,-0.001 -5.31955,-0.3391 -6.08869,-1.77625 -0.18496,-0.34562 -0.59187,-0.88396 -0.90424,-1.19633 -0.34412,-0.34412 -0.56793,-0.97498 -0.56793,-1.60089 0,-1.03297 0,-1.03297 -1.54945,-1.04963 -2.50905,-0.027 -3.54686,-0.52003 -4.00286,-1.90171 -0.22273,-0.67493 -0.31499,-1.68616 -0.2154,-2.36108 0.0958,-0.64929 0.13785,-1.31073 0.0934,-1.46987 -0.0453,-0.16214 -0.87683,-0.2484 -1.89145,-0.19622 -2.0883,0.10742 -3.47392,-0.44413 -3.75536,-1.49478 -0.0996,-0.37173 -0.18287,-2.76764 -0.18508,-5.32424 -0.004,-4.64836 -0.004,-4.64836 -1.59038,-4.64836 -0.87249,0 -1.96962,-0.0766 -2.43807,-0.17035 -0.85174,-0.17034 -0.85174,-0.17034 -0.74485,2.18362 0.0945,2.08025 0.0348,2.42606 -0.51326,2.97412 -0.58287,0.58287 -0.93069,0.62016 -5.785,0.62016 -5.16485,0 -5.16485,0 -5.16485,5.13215 0,6.37129 -0.0356,6.44519 -3.11738,6.46973 -1.12611,0.009 -2.18028,-0.0412 -2.34261,-0.11143 -0.41409,-0.17926 -0.4427,0.002 -0.4427,2.81628 0,2.50133 0,2.50133 0.75705,2.2135 1.77929,-0.67648 4.26641,-0.12379 4.80982,1.06885 0.1847,0.40537 0.33582,1.59406 0.33582,2.64152 0,1.90449 0,1.90449 1.13744,1.90449 0.76279,0 1.38203,0.21872 1.88002,0.66405 0.40842,0.36523 1.08786,0.91207 1.50987,1.2152 0.79934,0.57416 0.91056,0.8123 1.2093,2.58913 0.16999,1.01101 0.2595,1.08616 1.51864,1.27498 0.75318,0.11295 1.41062,0.38989 1.50414,0.6336 0.0913,0.23812 0.54623,0.62951 1.01078,0.86973 1.04151,0.5386 1.74004,1.82959 1.74004,3.21592 0,1.04763 0,1.04763 2.36108,1.04763 2.36106,0 2.36106,0 2.36106,-2.02571 0,-1.7904 0.0896,-2.11523 0.77093,-2.7966 1.31259,-1.3126 4.21412,-1.40776 5.44336,-0.17852 0.52303,0.52304 0.5738,1.015 0.5738,5.55952 0,5.4199 -0.0258,5.34002 1.72116,5.34724 0.52004,0.002 1.33877,0.49103 2.41073,1.43947 1.62324,1.43619 1.62324,1.43619 1.71879,5.75185 0.0956,4.31566 0.0956,4.31566 5.20024,4.31566 5.1047,0 5.1047,0 5.24777,-1.25432 0.0995,-0.87219 0.42587,-1.55605 1.07135,-2.24472 0.51056,-0.54472 0.92829,-1.11594 0.92829,-1.26938 0,-0.60741 2.10785,-1.13426 4.53805,-1.13426 2.49106,0 2.49106,0 4.1394,1.34272 1.61322,1.31412 1.84959,1.72806 2.01402,3.52699 0.0727,0.79571 0.20178,0.90035 1.27382,1.03297 0.65608,0.0812 1.38654,0.30577 1.62323,0.49914 2.94878,2.40894 2.7824,2.02307 2.89289,6.70859 0.1015,4.3025 0.1015,4.3025 5.23862,4.3025 5.13718,0 5.13718,0 5.13718,-2.36107 0,-2.36107 0,-2.36107 -2.00027,-2.36107 -2.41763,0 -3.16928,-0.43934 -3.62086,-2.11638 -0.29299,-1.08809 -0.25643,-1.74311 0.17989,-3.22204 0.11872,-0.40242 -0.19986,-0.46503 -2.2525,-0.44271 -2.26829,0.0247 -2.4273,-0.0164 -3.10363,-0.80206 -0.57489,-0.66781 -0.71287,-1.15622 -0.71287,-2.5234 0,-0.93243 0.15938,-1.8547 0.35417,-2.04949 0.41421,-0.41421 0.39166,-0.41754 -2.43149,-0.35878 -1.54984,0.0322 -2.08397,-0.0811 -2.71313,-0.57602 -0.93398,-0.73468 -1.35408,-2.79077 -0.88348,-4.32411 0.30627,-0.99794 0.30627,-0.99794 -2.0406,-0.99794 -2.09821,0 -2.42361,-0.0767 -3.07128,-0.72441 -0.70714,-0.70714 -0.72442,-0.83408 -0.72442,-5.3228 0,-3.69623 0.0916,-4.73818 0.46688,-5.31093 0.6386,-0.97462 2.17566,-1.43048 3.98451,-1.1817 1.47949,0.20347 1.47949,0.20347 1.28415,-1.26911 -0.23948,-1.80523 0.2341,-3.38656 1.20465,-4.02249 0.59711,-0.39124 1.77795,-0.46535 7.28966,-0.45748 6.57712,0.009 6.57712,0.009 8.15545,1.41028 1.39377,1.23706 1.5967,1.56384 1.7354,2.79438 0.15707,1.3935 0.15707,1.3935 2.47976,1.3935 2.3227,0 2.3227,0 2.3227,-1.89423 0,-1.04184 0.0792,-2.10051 0.1759,-2.35263 0.15181,-0.39564 -0.0827,-0.43423 -1.71332,-0.28195 -3.0738,0.28703 -4.36527,-0.67713 -4.36527,-3.25897 0,-2.78497 1.31129,-3.90584 4.2485,-3.63156 1.81145,0.16915 1.81145,0.16915 1.70405,-1.95779 -0.10062,-1.99254 -0.0564,-2.17794 0.69944,-2.9338 0.72231,-0.72231 1.01912,-0.80685 2.83255,-0.80685 2.02569,0 2.02569,0 2.02569,-5.31242 0,-5.31242 0,-5.31242 -2.18756,-5.31242 -2.18757,0 -2.18757,0 -2.38263,1.25433 -0.31789,2.044 -0.41269,2.20968 -1.97727,3.45541 -1.14842,0.9144 -1.75615,1.19294 -2.6027,1.19294 -1.10443,0 -1.10443,0 -1.2483,1.49718 -0.12905,1.34318 -0.2923,1.63024 -1.58699,2.79056 -0.85744,0.76844 -1.74261,1.30037 -2.18099,1.31062 -1.96724,0.046 -2.06593,0.1742 -2.06593,2.68309 0,2.05244 -0.0732,2.36113 -0.65594,2.76936 -0.99073,0.69393 -4.38373,0.62715 -5.28784,-0.10407 -0.65963,-0.53349 -0.70185,-0.77457 -0.79248,-4.52488 -0.0914,-3.78198 -0.0647,-3.99896 0.59027,-4.79193 1.65016,-1.99793 2.25791,-2.47816 3.37158,-2.66418 1.83967,-0.30725 1.889,-0.3491 1.889,-1.60229 0,-0.87736 0.15117,-1.26032 0.59026,-1.49532 0.32466,-0.17374 0.59028,-0.49865 0.59028,-0.72199 0,-0.58839 1.70549,-1.93353 2.45749,-1.93825 1.50265,-0.009 1.89354,-0.30414 2.06118,-1.5539 0.0916,-0.68303 0.41061,-1.41309 0.73053,-1.67187 0.31235,-0.25265 0.6491,-0.69103 0.74834,-0.97417 0.0993,-0.28314 0.61654,-0.78068 1.14955,-1.10565 0.84038,-0.51238 1.48848,-0.591 4.87962,-0.59196 3.91053,-0.001 3.91053,-0.001 3.91053,-5.16596 0,-5.16485 0,-5.16485 -2.20334,-5.16485 -2.20333,0 -2.20333,0 -2.39876,1.47319 -0.17146,1.29253 -0.37295,1.62729 -1.64312,2.72999 -1.44769,1.25682 -1.44769,1.25682 -5.64365,1.40438 -4.19594,0.14757 -4.19594,0.14757 -4.27694,5.29716 -0.099,6.29128 -0.0583,6.21308 -3.22463,6.21308 -1.92231,0 -2.26716,-0.086 -2.90561,-0.72442 -0.72442,-0.72443 -0.72442,-0.72443 -0.72442,-11.51024 0,-10.78581 0,-10.78581 -13.41471,-10.78581 -9.20279,0 -13.64054,-0.10285 -14.13391,-0.32768 -1.55066,-0.70654 -1.93069,-3.98335 -0.63988,-5.5174 0.65259,-0.77556 0.98221,-0.89626 2.95133,-1.08078 2.21671,-0.20773 2.21671,-0.20773 2.21996,-1.2893 0.002,-0.86878 0.27844,-1.39207 1.40189,-2.65971 1.23834,-1.39727 1.55929,-1.59615 2.80052,-1.7354 1.40188,-0.15727 1.40188,-0.15727 1.40188,-2.0326 0,-1.62888 0.10664,-1.9947 0.81163,-2.78362 0.96417,-1.079 2.68034,-1.42394 4.34738,-0.87377 1.34801,0.44488 1.92421,1.63574 1.92421,3.97677 0,1.63271 0,1.63271 6.86188,1.63283 6.86187,1.1e-4 6.86187,1.1e-4 8.55889,1.56713 1.69703,1.56702 1.69703,1.56702 1.69703,5.755 0,4.18798 0,4.18798 8.07732,4.18798 8.07734,0 8.07734,0 8.23405,-1.16838 0.1622,-1.20935 1.84164,-3.59241 2.94958,-4.18536 0.31414,-0.16812 2.35102,-0.38031 4.52641,-0.47151 3.95525,-0.16584 3.95525,-0.16584 3.95525,-5.28648 0,-5.12065 0,-5.12065 -1.89423,-5.12065 -1.04184,0 -2.07591,-0.0697 -2.29797,-0.15492 -0.32247,-0.12374 -0.40157,0.34897 -0.39306,2.34897 0.0136,3.19098 -0.2412,3.49764 -3.0374,3.65565 -1.80044,0.10173 -2.10215,0.0373 -2.85456,-0.60994 -0.71174,-0.61221 -0.86111,-0.99702 -0.96968,-2.49799 -0.11871,-1.64104 -0.0619,-1.84859 0.75558,-2.76358 0.81329,-0.91023 1.0223,-0.98909 2.61494,-0.9867 0.95204,10e-4 1.92238,0.0629 2.15629,0.13663 0.34933,0.1101 0.41091,-0.26618 0.34481,-2.10673 -0.0787,-2.19339 -0.0608,-2.25736 0.85167,-3.02512 0.93215,-0.78436 0.93215,-0.78436 14.0291,-0.78436 9.22392,0 13.31671,0.10017 13.84012,0.33863 1.02666,0.46778 1.46617,1.96933 1.21814,4.16165 -0.1861,1.64489 -0.16151,1.7572 0.33468,1.52857 0.87166,-0.40162 8.0781,-0.50973 9.3131,-0.13972 1.54994,0.46437 2.11133,1.63508 1.92101,4.00608 -0.14582,1.81667 -0.14582,1.81667 2.00607,1.67858 2.01061,-0.12904 2.20192,-0.0881 2.91362,0.62359 0.68295,0.68297 0.76169,0.98973 0.76169,2.96754 0,2.97607 -0.2292,3.18803 -3.35906,3.10627 -2.39606,-0.0626 -2.39606,-0.0626 -2.2912,2.26956 0.0577,1.28269 0.12408,2.3525 0.14757,2.37736 0.0235,0.0249 2.40696,0.0912 5.2966,0.14756 5.13437,0.10006 5.25027,0.0889 5.09509,-0.48789 -0.0873,-0.32465 -0.16061,-4.01014 -0.16282,-8.18998 -0.004,-7.59971 -0.004,-7.59971 -4.00775,-7.59971 -2.20203,0 -4.2474,-0.13042 -4.54523,-0.2898 -0.29784,-0.15941 -1.08597,-0.97362 -1.75141,-1.80937 -1.20988,-1.51954 -1.20988,-1.51954 -1.20988,-5.4653 0,-3.94576 0,-3.94576 -7.65959,-3.94576 -5.06416,0 -7.90757,-0.11297 -8.39139,-0.33341 -1.03872,-0.47328 -1.47033,-1.73634 -1.28641,-3.76458 0.15563,-1.7164 0.15563,-1.7164 -1.9521,-1.70387 -1.15925,0.007 -2.28867,-0.0462 -2.50981,-0.11793 -0.32094,-0.10418 -0.39184,0.38482 -0.35137,2.42293 0.0467,2.35344 -0.002,2.59034 -0.62278,3.02513 -0.45625,0.31957 -1.31869,0.47173 -2.67375,0.47173 -2.94471,0 -3.72942,-1.00042 -3.38701,-4.31808 0.16611,-1.60938 0.16611,-1.60938 -1.51087,-1.45066 -1.00224,0.0948 -2.09216,0.0111 -2.70888,-0.20896 -1.71934,-0.61263 -1.81352,-1.30074 -1.71254,-12.51221 0.0882,-9.79626 0.0882,-9.79626 0.79949,-10.55294 1.2794,-1.36109 4.1688,-1.37246 5.51953,-0.0217 0.60968,0.60967 0.70487,0.9857 0.70487,2.78422 0,2.07936 0,2.07936 2.07935,2.07936 1.8142,0 2.17173,0.0924 2.80378,0.72441 0.64554,0.64555 0.72442,0.97557 0.72442,3.03086 0,2.30645 0,2.30645 2.19557,2.19558 2.04441,-0.10329 2.24844,-0.058 2.96355,0.65711 0.76799,0.76799 0.76799,0.76799 0.7295,5.80339 -0.0385,5.03541 -0.0385,5.03541 13.66885,5.0104 16.34582,-0.0298 15.09432,-0.32527 15.1659,3.58031 0.0351,1.91603 0.13317,2.4327 0.44271,2.33283 0.21868,-0.0705 1.01234,-0.18187 1.76372,-0.24742 2.68463,-0.23416 3.79312,1.0602 3.79708,4.43379 0.001,1.40188 0.001,1.40188 1.89588,1.40188 1.04182,0 2.0711,0.0679 2.28729,0.15104 0.31814,0.12223 0.39305,-0.83868 0.39305,-5.04215 0,-5.19318 0,-5.19318 0.82807,-5.90615 0.69042,-0.59444 1.14425,-0.71296 2.73,-0.71296 3.18319,0 3.49733,0.6925 3.33259,7.34659 -0.12543,5.06676 -0.18983,5.17351 -3.12892,5.18727 -1.09501,0.006 -2.19015,-0.0571 -2.43363,-0.13824 -0.24349,-0.0812 -0.42943,0.0184 -0.4132,0.22136 0.0163,0.2029 0.0494,1.42811 0.0737,2.72269 0.0443,2.35377 0.0443,2.35377 0.80131,2.06593 1.93372,-0.73519 4.28813,-0.003 4.81057,1.49528 0.43735,1.25461 0.46737,29.1605 0.033,30.72419 -0.42196,1.51918 -2.57089,3.23434 -4.29589,3.42878 -1.30476,0.14706 -1.30476,0.14706 -1.30476,2.57638 0,2.42932 0,2.42932 1.25432,2.14307 0.87126,-0.19882 1.64419,-0.181 2.53096,0.0583 1.93803,0.52309 2.19227,1.38643 2.06913,7.02608 -0.0866,3.9633 -0.16732,4.59687 -0.62909,4.93418 -0.80269,0.58636 -2.98191,0.81572 -4.32195,0.45488 -1.83862,-0.49508 -2.08478,-1.23637 -2.0794,-6.26178 0.002,-2.32118 0.13125,-4.41954 0.28612,-4.66302 0.24005,-0.3774 -0.0981,-0.4662 -2.29181,-0.60204 -1.41537,-0.0877 -2.65909,-0.12161 -2.76381,-0.0755 -0.10474,0.0462 -0.0564,0.61177 0.10742,1.257 0.18358,0.72323 0.19948,1.71119 0.0415,2.5761 -0.31997,1.75135 -0.99626,2.14652 -3.68384,2.1525 -1.95462,0.004 -1.95462,0.004 -2.09848,1.50153 -0.12906,1.34318 -0.29231,1.63023 -1.587,2.79056 -0.85743,0.76844 -1.74259,1.30036 -2.18098,1.31061 -1.94922,0.0456 -2.06594,0.1898 -2.06594,2.55226 0,2.94805 -0.39936,3.35962 -3.25989,3.35962 -1.81419,0 -2.17173,-0.0924 -2.80377,-0.72441 -0.69415,-0.69416 -0.72443,-0.88327 -0.72443,-4.52615 0,-3.80173 0,-3.80173 1.08921,-5.19976 1.21997,-1.5659 2.29985,-2.24044 3.58671,-2.24044 0.94212,0 1.22677,-0.41307 1.22677,-1.78028 0,-0.46563 0.20897,-0.96355 0.46438,-1.10649 0.25541,-0.14292 0.62065,-0.56836 0.81163,-0.94539 0.72932,-1.43987 1.68861,-1.82474 4.95845,-1.98937 1.74044,-0.0877 3.53899,-0.0215 4.1667,0.15303 0.60744,0.16897 1.14284,0.21861 1.18978,0.11032 0.047,-0.10831 0.0375,-1.2262 -0.021,-2.48421 -0.10631,-2.28729 -0.10631,-2.28729 -4.81983,-2.28729 -5.5756,0 -6.25028,-0.20971 -6.75959,-2.10114 -0.43409,-1.61212 -0.11733,-3.28438 0.78219,-4.12944 0.58369,-0.54836 1.14051,-0.7105 2.75261,-0.80159 2.0209,-0.11419 2.0209,-0.11419 2.14808,-2.36991 0.0699,-1.24065 0.11694,-2.2615 0.1044,-2.26857 -0.0125,-0.007 -2.37547,0.0392 -5.25105,0.10284 -5.22833,0.11564 -5.22833,0.11564 -5.31242,11.03293 -0.0841,10.91728 -0.0841,10.91728 -0.78084,11.48122 -1.09024,0.88244 -4.16523,0.79601 -5.26325,-0.14792 -0.82808,-0.71187 -0.82808,-0.71187 -0.91542,-8.70646 -0.0873,-7.99459 -0.0873,-7.99459 -4.10402,-7.99459 -3.85112,0 -4.05737,-0.031 -5.00373,-0.75287 -0.54288,-0.41406 -0.98705,-0.9291 -0.98705,-1.14453 0,-0.21542 -0.27394,-0.5739 -0.60877,-0.7966 -0.39051,-0.25973 -0.66839,-0.85018 -0.77502,-1.64673 -0.16189,-1.20934 -0.20054,-1.24695 -1.47806,-1.43854 -1.35749,-0.20356 -3.04082,-1.34263 -3.04082,-2.05764 0,-0.22335 -0.24716,-0.53836 -0.54923,-0.70002 -0.4584,-0.24533 -0.58315,-0.80068 -0.7545,-3.35859 -0.11291,-1.68556 -0.11361,-4.39573 -10e-4,-6.02259 0.20371,-2.95792 0.20371,-2.95792 1.60434,-4.54663 1.40061,-1.5887 1.40061,-1.5887 5.73541,-1.63766 4.3348,-0.049 4.3348,-0.049 4.3888,-2.43513 0.054,-2.38618 0.054,-2.38618 -5.15306,-2.3859 -5.75644,3e-4 -5.56535,-0.0676 -5.56535,1.97688 0,0.84695 -0.23569,1.26244 -1.25432,2.21119 -1.41086,1.31405 -2.22588,1.71489 -3.48703,1.71489 -0.8662,0 -0.8662,0 -0.8662,3.7927 0,3.43644 -0.32936,5.6512 -0.84049,5.65182 -0.10586,1.2e-4 -0.71464,0.46496 -1.35284,1.03297 -0.93444,0.83167 -1.40139,1.03274 -2.39831,1.03274 -1.23795,0 -1.23795,0 -1.37729,1.68029 -0.10642,1.28284 -0.28601,1.77766 -0.75938,2.09198 -0.34102,0.22643 -0.9565,0.7235 -1.36774,1.10462 -0.43197,0.40034 -1.31068,0.77737 -2.08094,0.89288 -1.33324,0.19994 -1.33324,0.19994 -1.33324,2.35762 0,2.15769 0,2.15769 4.05809,2.25378 4.0581,0.0962 4.0581,0.0962 5.68134,1.63076 1.62324,1.53467 1.62324,1.53467 1.72929,4.10633 0.13947,3.38214 -0.20278,4.41976 -1.9116,5.79545 -1.37477,1.10676 -1.37477,1.10676 -5.46594,1.10676 -4.09118,0 -4.09118,0 -4.09283,6.56674 -10e-4,5.98437 -0.26379,8.77984 -0.82384,8.78047 -0.11411,1.2e-4 -0.73872,0.47314 -1.38801,1.05113 -1.18055,1.0509 -1.18055,1.0509 -5.45999,0.99902 -3.50299,-0.0425 -4.2538,0.0212 -4.13808,0.35076 0.0778,0.22144 0.12875,1.33399 0.11332,2.47231 -0.028,2.06967 -0.028,2.06967 2.12799,1.9608 2.0069,-0.10139 2.2098,-0.0551 2.93344,0.66854 0.77741,0.77741 0.77741,0.77741 0.68199,5.07306 -0.0867,3.8992 -0.14989,4.33416 -0.68568,4.71306 -0.32466,0.22958 -0.8559,0.66276 -1.18055,0.96262 -0.90662,0.83738 -1.79125,1.22732 -2.78437,1.22732 -0.8949,0 -0.9048,0.017 -0.9048,1.55141 0,1.80076 -0.41775,3.46928 -0.9538,3.80952 -0.20587,0.13067 -1.32247,0.23961 -2.48133,0.2421 -2.99714,0.007 -3.4505,-0.4124 -3.5975,-3.32352 -0.11168,-2.21156 -0.11168,-2.21156 -1.54086,-2.40116 -1.26578,-0.1679 -1.58287,-0.36947 -2.77324,-1.76281 -0.91638,-1.07264 -1.34548,-1.84481 -1.34856,-2.4268 -0.008,-1.54009 -0.0879,-1.5632 -5.53862,-1.60487 -2.79472,-0.0214 -5.08139,0.0394 -5.08149,0.13487 -0.0132,11.48482 -0.15318,10.65954 1.78924,10.55001 0.98479,-0.0555 2.1115,-0.0204 2.50381,0.0781 1.12192,0.28159 1.68146,1.70332 1.56344,3.97253 -0.0849,1.63298 -0.029,1.92899 0.34112,1.80616 0.24349,-0.0808 1.28463,-0.1472 2.31366,-0.14757 2.56057,-9e-4 2.99882,0.53218 2.99859,3.64742 -1.5e-4,2.2546 -1.5e-4,2.2546 10.69862,2.17654 5.88433,-0.043 10.86479,-0.13839 11.0677,-0.2121 0.27008,-0.0982 0.36892,-1.19234 0.36892,-4.08449 0,-3.83245 0.0227,-3.97601 0.76362,-4.80519 2.18354,-2.44399 2.09248,-2.38392 3.90018,-2.57285 3.18901,-0.33333 4.49731,-0.007 6.28672,1.57043 1.59268,1.40356 1.59268,1.40356 1.68816,6.97345 0.0568,3.31448 -0.0294,5.99095 -0.21315,6.60975 -0.45207,1.52306 -2.79154,3.23958 -4.41528,3.23958 -1.22217,0 -1.22217,0 -1.22217,1.49072 0,1.34019 -0.11176,1.59617 -1.10675,2.53509 -1.24072,1.17078 -2.64567,1.87688 -3.73446,1.87688 -0.72829,0 -0.72829,0 -0.8211,5.15506 -0.1111,6.16848 -0.0918,6.12989 -3.14089,6.30217 -1.81224,0.1024 -2.09941,0.0397 -2.87661,-0.62823 -0.8634,-0.742 -0.8634,-0.742 -0.95662,-5.7855 -0.0932,-5.0435 -0.0932,-5.0435 -2.28729,-5.0435 -2.19406,0 -2.19406,0 -2.19406,5.16484 0,5.16485 0,5.16485 0.99441,5.16485 0.7203,0 1.41329,0.33352 2.51397,1.20988 0.83574,0.66544 1.64995,1.45357 1.80935,1.7514 0.1729,0.32307 0.28981,4.47828 0.28981,10.30036 0,11.55971 0.18487,10.93936 -3.25989,10.93936 -1.81419,0 -2.17172,-0.0924 -2.80377,-0.72441 -0.62981,-0.62981 -0.72442,-0.99163 -0.72442,-2.77047 0,-2.04605 0,-2.04605 -1.99216,-2.17936 -1.09569,-0.0733 -2.16584,-0.18791 -2.37813,-0.25466 -0.34011,-0.10697 -0.47817,4.18034 -0.35679,11.079 0.002,0.15421 0.16431,0.121 0.35909,-0.0737 0.19479,-0.19479 1.10655,-0.35416 2.02615,-0.35416 2.79247,0 3.83159,1.42566 3.3551,4.60316 -0.28808,1.92104 -0.68161,2.18904 -3.17406,2.16163 -1.16526,-0.0128 -2.28745,-0.0912 -2.49378,-0.17423 z m 2.86437,-24.00348 c 1.79021,0 1.79021,0 1.79021,-2.18193 0,-2.33499 -0.13467,-2.54021 -1.66679,-2.54021 -1.0867,0 -1.68521,-0.41519 -3.02602,-2.09918 -1.20988,-1.51954 -1.20988,-1.51954 -1.20988,-5.47771 0,-3.95817 0,-3.95817 -2.28729,-3.87198 -2.28729,0.0862 -2.28729,0.0862 -2.36787,5.13622 -0.0805,5.05002 -0.0805,5.05002 1.29552,5.23863 0.75684,0.10374 1.76202,0.18862 2.23371,0.18862 0.52319,0 1.14776,0.29013 1.60165,0.74402 0.65905,0.65905 0.73923,0.97083 0.70203,2.72999 -0.0609,2.88279 -0.0827,2.79033 0.57366,2.43905 0.31397,-0.16803 1.37645,-0.30552 2.36107,-0.30552 z M 377.52115,366.7905 c 0,-5.16485 0,-5.16485 -1.22646,-5.16485 -1.31471,0 -3.20056,-1.13308 -3.20056,-1.92301 0,-0.22951 -0.25753,-0.55513 -0.5723,-0.72359 -0.37227,-0.19924 -0.64033,-0.76 -0.76697,-1.60447 -0.19101,-1.27377 -0.21974,-1.30197 -1.52601,-1.49785 -1.31768,-0.1976 -1.6812,-0.47411 -3.55389,-2.70328 -0.43622,-0.51928 -0.66405,-1.17944 -0.66405,-1.92425 0,-1.13379 0,-1.13379 -5.16485,-1.13379 -5.16485,0 -5.16485,0 -5.16485,4.09069 0,2.24988 -0.0866,4.72221 -0.19235,5.49408 -0.18986,1.3852 -0.18316,1.40009 0.51648,1.14795 0.38987,-0.1405 1.42759,-0.24384 2.30606,-0.22964 1.36537,0.0221 1.70007,0.1454 2.30586,0.84966 0.60618,0.70472 0.70272,1.10641 0.66768,2.77797 -0.0597,2.84974 -0.0567,2.87053 0.35799,2.45583 0.20602,-0.20601 1.19365,-0.35416 2.36107,-0.35416 2.00691,0 2.00691,0 2.00691,-2.02569 0,-1.78254 0.0911,-2.11685 0.75936,-2.78505 0.91232,-0.91231 2.08596,-1.2116 3.68911,-0.94075 2.20271,0.37215 2.33962,0.74652 2.33962,6.39741 0,4.96163 0,4.96163 2.36107,4.96163 2.36108,0 2.36108,0 2.36108,-5.16484 z m -24.93029,-0.39737 c 1.94796,0.10017 1.94796,0.10017 2.00267,-2.33392 0.0596,-2.649 0.45344,-2.44573 -4.71457,-2.43308 -0.15056,3.6e-4 -0.21219,2.82916 -0.11169,5.12672 0.007,0.14162 0.20575,0.096 0.44345,-0.10117 0.27386,-0.22728 1.14585,-0.32198 2.38014,-0.25851 z m -5.02651,-5.73023 c 0.56819,0.17438 1.07749,0.22992 1.13179,0.12341 0.0543,-0.10652 0.0399,-1.22292 -0.032,-2.48092 -0.13069,-2.28729 -0.13069,-2.28729 -2.45951,-2.28729 -2.32882,0 -2.32882,0 -2.32882,2.46769 0,2.4677 0,2.4677 1.32772,2.16387 0.92632,-0.21196 1.64004,-0.20797 2.36079,0.0133 z m -39.3544,-19.24539 c -0.0635,-1.2343 0.0312,-2.10629 0.25851,-2.38014 0.19729,-0.23771 0.24282,-0.43727 0.10118,-0.44346 -2.29757,-0.1005 -5.12636,-0.0389 -5.12673,0.1117 -0.0126,5.168 -0.21592,4.77411 2.43308,4.71456 2.43411,-0.0546 2.43411,-0.0546 2.33394,-2.00266 z m -0.006,-11.86856 c -0.0521,-1.26854 -0.11552,-2.32179 -0.14092,-2.34056 -0.0254,-0.0187 -1.15151,-0.10653 -2.50246,-0.19491 -2.0987,-0.13738 -2.43169,-0.0967 -2.28729,0.2796 0.0929,0.24223 0.16887,1.39242 0.16872,2.55599 -2.8e-4,2.11558 -2.8e-4,2.11558 2.42821,2.06096 2.42849,-0.0547 2.42849,-0.0547 2.33374,-2.36108 z m -5.60487,-3.96657 c -0.33029,-1.27209 -0.37154,-2.68685 -0.10095,-3.46298 0.30853,-0.88506 0.30853,-0.88506 -2.25122,-0.98147 -1.40785,-0.053 -2.57589,-0.0957 -2.59563,-0.0948 -0.0197,8.7e-4 0.0302,1.09178 0.11098,2.42427 0.14691,2.42267 0.14691,2.42267 2.24941,2.52069 2.58587,0.12054 2.71864,0.0997 2.58742,-0.40569 z m 44.20852,-28.59113 c 1.79021,0 1.79021,0 1.79021,-2.37349 0,-2.37348 0,-2.37348 -2.28729,-2.28729 -2.28729,0.0862 -2.28729,0.0862 -2.3728,2.68529 -0.0826,2.50825 -0.0652,2.58819 0.49707,2.28729 0.32043,-0.17149 1.3882,-0.3118 2.37281,-0.3118 z m 13.38096,-1.17968 c 0.10764,-0.80258 0.54932,-1.6468 1.3817,-2.64099 1.25203,-1.4954 1.43659,-1.60232 3.31071,-1.91773 1.08376,-0.1824 1.08376,-0.1824 1.18555,-2.46063 0.056,-1.25303 0.0995,-2.28728 0.0968,-2.29834 -0.002,-0.0112 -1.08509,0.0355 -2.40516,0.1034 -2.40017,0.12357 -2.40017,0.12357 -2.54117,1.59108 -0.12573,1.30846 -0.29742,1.60768 -1.58416,2.76087 -1.21502,1.08892 -1.64141,1.29546 -2.69747,1.30659 -1.25432,0.0133 -1.25432,0.0133 -1.25432,2.3743 0,2.36108 0,2.36108 2.17465,2.36108 2.17465,0 2.17465,0 2.33288,-1.17969 z m -24.70501,-16.23324 c 1.60402,0 1.60402,0 1.60402,-4.8523 0,-3.22855 0.10932,-4.91984 0.32664,-5.05417 0.65137,-0.40256 -0.286,-0.56996 -2.65712,-0.47453 -2.39166,0.0963 -2.39166,0.0963 -2.39166,5.52646 0,5.4302 0,5.4302 0.75704,5.14238 0.41639,-0.15831 1.47887,-0.28784 2.36108,-0.28784 z M 469.8984,266.27789 c 0,-8.60392 0.10786,-13.50202 0.30553,-13.87131 0.29086,-0.54349 0.18575,-0.57086 -2.1924,-0.57086 -2.49791,0 -2.49791,0 -2.59281,8.14265 -0.0949,8.14263 -0.0949,8.14263 -0.83274,8.73996 -0.63326,0.51266 -1.05156,0.57917 -2.95134,0.46923 -2.21351,-0.12809 -2.21351,-0.12809 -2.17133,2.39798 0.0422,2.52606 0.0422,2.52606 2.09487,2.43124 1.81347,-0.0838 2.14803,-0.0128 2.8706,0.60868 0.71572,0.61564 0.83687,0.96891 0.9699,2.82819 0.15203,2.12468 0.15203,2.12468 2.32587,2.12468 2.17385,0 2.17385,0 2.17385,-13.30044 z m -28.87101,-0.31131 c 0.10564,-1.8694 0.2113,-2.18113 0.95675,-2.82235 0.73724,-0.63414 1.08568,-0.71278 2.89783,-0.65401 2.05982,0.0668 2.05982,0.0668 2.10167,-2.41629 0.0418,-2.48309 0.0418,-2.48309 -5.35635,-2.48309 -5.39822,0 -5.39822,0 -5.2118,1.49204 0.22557,1.80541 -0.27258,3.87632 -0.98059,4.07653 -0.28045,0.0793 -1.47277,0.23362 -2.64962,0.34289 -2.13973,0.1987 -2.13973,0.1987 -2.13973,2.38225 0,2.18355 0,2.18355 5.13154,2.18355 5.13155,0 5.13155,0 5.2503,-2.10152 z m 17.36053,-22.9674 c 0,-1.17906 0.13864,-2.13421 0.32664,-2.2504 0.66408,-0.41042 -0.30165,-0.56859 -2.58412,-0.42323 -2.3171,0.14757 -2.3171,0.14757 -2.40607,2.03486 -0.049,1.03801 -0.0199,2.06729 0.0645,2.28729 0.11032,0.28759 0.77819,0.39999 2.37626,0.39999 2.22277,0 2.22277,0 2.22277,-2.04851 z m -34.54227,-10.81751 c -0.19832,-2.11156 -0.1428,-7.19662 0.0907,-8.30985 0.20122,-0.95918 0.20122,-0.95918 -2.28689,-0.95918 -2.48811,0 -2.48811,0 -2.57505,5.23863 -0.0479,2.88124 -0.0662,5.30503 -0.0408,5.3862 0.0253,0.0812 1.14904,0.1351 2.49707,0.11986 2.45097,-0.0277 2.45097,-0.0277 2.31498,-1.47566 z m -9.35894,169.11493 c -0.52755,-0.41578 -0.95918,-0.94087 -0.95918,-1.16689 0,-0.226 -0.25602,-0.54793 -0.5689,-0.71538 -0.69896,-0.37407 -1.06775,-2.80904 -0.77741,-5.13285 0.16775,-1.34262 0.40548,-1.80397 1.58347,-3.07291 1.17041,-1.26081 1.60418,-1.52534 2.78796,-1.7002 1.40189,-0.20706 1.40189,-0.20706 1.40189,-4.11477 0,-3.63677 0.0461,-3.95893 0.66405,-4.64652 0.36522,-0.40636 0.86327,-1.03968 1.10675,-1.40738 0.50822,-0.7675 1.99728,-1.48161 3.08943,-1.48161 0.732,0 0.74732,-0.0445 0.74732,-2.1731 0,-2.1731 0,-2.1731 -1.8446,-2.32844 -1.01452,-0.0854 -2.03022,-0.20323 -2.2571,-0.26176 -0.32817,-0.0847 -0.41869,0.41854 -0.4427,2.46095 -0.0197,1.67633 -0.1633,2.70064 -0.41373,2.95135 -0.23462,0.2349 -1.35182,0.42437 -2.87756,0.48804 -2.49402,0.10408 -2.49402,0.10408 -2.49402,5.23863 0,6.28547 -0.0153,6.3151 -3.25988,6.3151 -1.8142,0 -2.17173,-0.0924 -2.80378,-0.72442 -0.72442,-0.72442 -0.72442,-0.72442 -0.72442,-7.38406 0,-6.65965 0,-6.65965 1.10675,-8.10719 0.60872,-0.79614 1.47519,-1.60787 1.9255,-1.80384 0.75349,-0.32792 7.11036,-0.5164 8.16811,-0.24218 0.34982,0.0907 0.41262,-0.27376 0.34395,-1.99593 -0.052,-1.30299 0.0399,-2.18349 0.2409,-2.30768 0.72799,-0.44993 -0.0808,-0.66426 -1.9909,-0.5276 -2.39469,0.17134 -3.17973,-0.15463 -3.76904,-1.56508 -0.46027,-1.10159 -0.55632,-5.2321 -0.16115,-6.93074 0.13337,-0.57329 0.59504,-1.42274 1.02593,-1.88769 0.43089,-0.46494 0.78344,-0.95535 0.78344,-1.08981 0,-0.43971 1.71805,-1.14502 2.78912,-1.14502 1.02577,0 1.04763,-0.0247 1.04763,-1.18248 0,-0.89349 0.18033,-1.33929 0.73784,-1.82403 0.4058,-0.35285 0.73782,-0.76838 0.73782,-0.92339 0,-0.63471 1.53968,-1.65107 2.78385,-1.83765 1.31846,-0.19771 1.31846,-0.19771 1.51872,-2.23002 0.16065,-1.63043 0.35016,-2.18221 0.95835,-2.7904 0.68758,-0.68758 0.95169,-0.75181 2.83966,-0.69058 1.78192,0.0578 2.07801,-0.003 2.05696,-0.42478 -0.0135,-0.27077 -0.0467,-1.3383 -0.0737,-2.37229 -0.0492,-1.87999 -0.0492,-1.87999 -1.45107,-2.03726 -1.2416,-0.1393 -1.56063,-0.33713 -2.79016,-1.73022 -1.08436,-1.2286 -1.4074,-1.8325 -1.47567,-2.75867 -0.0874,-1.18573 -0.0874,-1.18573 -2.40152,-1.33329 -2.93751,-0.18732 -3.441,-0.67139 -3.441,-3.30832 0,-1.59645 0.0886,-1.85004 0.91662,-2.62352 0.80905,-0.75576 1.13303,-0.85624 2.76085,-0.85624 1.84423,0 1.84423,0 2.05235,-4.01247 0.20811,-4.01247 0.20811,-4.01247 1.29724,-5.43137 1.23493,-1.60884 2.00197,-2.0664 3.46409,-2.0664 1.01909,0 1.01909,0 1.01909,-2.36107 0,-2.36108 0,-2.36108 -2.07936,-2.36108 -1.81419,0 -2.17173,-0.0924 -2.80377,-0.72442 -0.61844,-0.61843 -0.72443,-1.00117 -0.72443,-2.61596 0,-1.65023 0.0993,-1.99081 0.77809,-2.66963 0.68953,-0.68953 1.0086,-0.77807 2.80377,-0.77807 2.0257,0 2.0257,0 2.0257,-4.84708 0,-4.74856 0.0151,-4.86501 0.74297,-5.73003 0.89639,-1.06531 2.48672,-1.41447 4.26339,-0.93607 1.50147,0.4043 2.07686,1.50634 2.07686,3.97777 0,1.63272 0,1.63272 0.99442,1.63272 0.72029,0 1.41328,0.33351 2.51395,1.20988 0.83575,0.66543 1.64997,1.45357 1.80937,1.7514 0.40859,0.76348 0.37563,11.87442 -0.0379,12.78209 -0.18025,0.39561 -0.64509,0.88914 -1.03297,1.09673 -0.38788,0.20759 -0.70523,0.49457 -0.70523,0.63775 0,0.35627 -1.88309,1.11561 -2.7666,1.11561 -0.63569,0 -0.74234,0.16515 -0.91438,1.41599 -0.24003,1.7453 -0.29358,1.8322 -1.92979,3.13275 -1.04706,0.83224 -1.58792,1.05368 -2.57921,1.05594 -1.25432,0.003 -1.25432,0.003 -1.25432,5.13613 0,5.57199 -0.0249,5.49156 1.69641,5.49156 0.77667,0 0.88611,0.0722 2.7759,1.83154 0.91759,0.85423 1.11029,1.26003 1.29309,2.72314 0.32665,2.61438 0.009,6.9155 -0.55272,7.47692 -0.45468,0.45468 -3.8273,0.69865 -4.91755,0.35572 -0.24348,-0.0765 -0.42942,0.0268 -0.41318,0.22967 0.0163,0.20291 0.0494,1.2986 0.0737,2.43486 0.0443,2.06595 0.0443,2.06595 5.17562,2.06595 5.13133,0 5.13133,0 5.33039,-1.32734 0.13057,-0.87082 0.39588,-1.43269 0.77134,-1.63363 0.31476,-0.16846 0.57229,-0.48902 0.57229,-0.71237 0,-0.22334 0.40863,-0.74991 0.90805,-1.17015 0.67739,-0.56998 1.23965,-0.76407 2.21351,-0.76407 1.30546,0 1.30546,0 1.30546,-1.18053 0,-0.72896 0.19757,-1.37997 0.51648,-1.7019 0.28408,-0.28675 0.75924,-0.89548 1.05594,-1.35276 0.96184,-1.48242 1.92932,-1.66792 8.67402,-1.66314 6.8386,0.004 7.3866,0.12674 7.97598,1.77414 0.34113,0.95352 0.28117,3.24586 -0.11168,4.26959 -0.28656,0.74679 -2.16779,1.03179 -6.82185,1.03349 -4.5008,10e-4 -4.5008,10e-4 -4.5008,7.93697 0,7.93531 0,7.93531 1.99216,8.06862 1.09567,0.0733 2.17632,0.18792 2.40142,0.25465 0.33937,0.10062 0.39868,-0.73971 0.34724,-4.92011 -0.062,-5.04147 -0.062,-5.04147 1.0029,-5.97647 1.20956,-1.06201 2.70375,-1.2361 4.4275,-0.51588 1.32501,0.55363 1.6324,1.70226 1.62546,6.07384 -0.006,3.63662 -0.30268,5.53823 -0.92916,5.95107 -0.21464,0.14145 -1.45024,0.23438 -2.74578,0.2065 -2.35552,-0.0506 -2.35552,-0.0506 -2.26176,2.19616 0.0867,2.07581 0.0367,2.30395 -0.65618,2.99681 -0.67066,0.67066 -0.98542,0.74995 -2.97688,0.74995 -2.22692,0 -2.22692,0 -2.22692,4.22304 0,4.64047 0.0311,4.54444 -2.02008,6.23217 -1.28224,1.05502 -1.28224,1.05502 -11.14132,1.05502 -9.85907,0 -9.85907,0 -9.85907,2.36108 0,2.36108 0,2.36108 1.13378,2.36108 1.12404,0 1.49505,0.21882 3.56863,2.10474 1.04005,0.94592 1.34768,2.81252 1.13468,6.88475 -0.14236,2.72163 -0.14236,2.72163 2.00369,2.5839 2.00413,-0.12861 2.19642,-0.0873 2.90775,0.62398 0.67,0.67 0.7617,1.00415 0.7617,2.77539 0,2.95904 -0.34486,3.32555 -3.12905,3.32555 -1.97802,0 -2.28959,-0.0794 -2.96596,-0.75576 -0.69645,-0.69645 -0.74736,-0.92234 -0.64856,-2.87756 0.1072,-2.12179 0.1072,-2.12179 -2.1732,-2.12179 -3.09665,0 -3.57066,-0.45077 -3.72687,-3.54421 -0.11164,-2.21091 -0.11164,-2.21091 -2.2929,-2.21091 -2.18124,0 -2.18124,0 -2.20615,2.87756 -0.0379,4.38799 -0.34324,6.29768 -1.08546,6.79049 -0.34383,0.22829 -0.99831,0.73602 -1.45441,1.12827 -0.76363,0.65675 -1.07456,0.71297 -3.92818,0.71029 -2.87665,-0.002 -3.1677,-0.0571 -4.05809,-0.75887 z m 32.39097,-37.30982 c 0,-7.96861 0,-7.96861 -8.11618,-7.96861 -8.11619,0 -8.11619,0 -8.11619,7.96861 0,7.96862 0,7.96862 8.11619,7.96862 8.11618,0 8.11618,0 8.11618,-7.96862 z m -10.18212,3.21731 c -1.06063,-0.60976 -1.32811,-1.23125 -1.32811,-3.0859 0,-1.56343 0.10764,-1.92939 0.75937,-2.58108 0.90963,-0.90963 2.08546,-1.21167 3.67289,-0.94348 1.75192,0.29599 2.35583,1.23721 2.35583,3.67168 0,2.72462 -0.30768,3.06906 -2.84538,3.18537 -1.16268,0.0533 -2.27558,-0.0516 -2.6146,-0.24659 z m -14.99283,-0.85623 c 1.85936,0 1.85936,0 1.85936,-2.36108 0,-2.36107 0,-2.36107 -2.18226,-2.36107 -2.18226,0 -2.18226,0 -2.30967,2.43486 -0.13686,2.61557 -0.0509,3.11138 0.45238,2.60814 0.17647,-0.17647 1.15756,-0.32085 2.18019,-0.32085 z m 25.89938,34.98682 c -0.60788,-0.60788 -0.72443,-1.00881 -0.72443,-2.49218 0,-1.44274 0.13088,-1.92002 0.71182,-2.59584 0.71181,-0.82808 0.71181,-0.82808 8.63267,-0.97565 7.92087,-0.14756 7.92087,-0.14756 7.92087,-2.36107 0,-2.2135 0,-2.2135 -5.06115,-2.36108 -5.84122,-0.17031 -6.1229,-0.28451 -6.44304,-2.61223 -0.21728,-1.57987 0.10765,-2.66584 1.06449,-3.55725 0.5394,-0.50251 1.04125,-0.6186 2.67429,-0.6186 2.01029,0 2.01029,0 2.01029,-3.94577 0,-3.94575 0,-3.94575 1.20988,-5.46529 0.66543,-0.83575 1.45357,-1.64996 1.75141,-1.80936 0.29783,-0.15941 1.85414,-0.28981 3.45845,-0.28981 2.91693,0 2.91693,0 4.59398,1.56076 1.5268,1.42093 1.67706,1.67213 1.67706,2.80377 0,1.24301 0,1.24301 1.75158,1.24301 2.27015,0 3.12523,0.34796 3.73026,1.51796 0.58901,1.13901 0.42929,4.20763 -0.25459,4.89151 -0.27102,0.27101 -1.31354,0.48985 -2.82825,0.59366 -2.399,0.16444 -2.399,0.16444 -2.399,5.28712 0,5.12267 0,5.12267 2.04948,5.12267 1.74176,0 2.17381,0.10709 2.87755,0.71296 0.77332,0.66581 0.82808,0.86255 0.82808,2.97517 0,1.89873 -0.092,2.32952 -0.57289,2.68108 -0.47525,0.34748 -2.90475,0.41887 -14.25364,0.41887 -13.68075,0 -13.68075,0 -14.40517,-0.72441 z m 23.54416,-28.39627 c -0.96038,-0.3864 -1.24812,-1.79507 -1.24812,-6.11054 0,-4.13352 0.024,-4.29999 0.74298,-5.15444 0.89639,-1.0653 2.48672,-1.41447 4.2634,-0.93606 1.89209,0.50949 2.15107,1.40497 2.02858,7.01435 -0.11848,5.42544 -0.10084,5.39702 -3.3284,5.36093 -1.14582,-0.0128 -2.25212,-0.0912 -2.45844,-0.17424 z M 269.17575,355.70736 c -1.00086,-0.39077 -1.44609,-1.41823 -1.43797,-3.31848 0.007,-1.62265 0.48592,-2.51818 1.67106,-3.12426 1.36545,-0.6983 4.26372,-0.17984 4.82156,0.86249 0.4288,0.80123 0.35833,4.50276 -0.0976,5.12628 -0.46164,0.63132 -3.735,0.93109 -4.95705,0.45397 z m 17.233,-0.12488 c -1.13269,-0.49248 -1.38347,-1.2629 -1.20669,-3.70695 0.12732,-1.76005 0.12732,-1.76005 -3.93573,-1.76005 -2.33932,0 -4.35065,-0.13735 -4.74098,-0.32375 -0.37286,-0.17806 -1.20918,-1.00813 -1.85847,-1.84459 -1.18054,-1.52084 -1.18054,-1.52084 -1.18054,-7.24003 0,-5.60364 0.0134,-5.72811 0.66405,-6.16004 0.36523,-0.24246 0.66405,-0.6007 0.66405,-0.7961 0,-0.76317 1.50134,-1.76198 2.88815,-1.92142 1.3913,-0.15996 1.3913,-0.15996 1.47749,-2.44725 0.0862,-2.28729 0.0862,-2.28729 -1.71167,-2.28729 -2.41785,0 -3.4267,-0.55144 -3.84398,-2.10115 -0.43605,-1.61934 -0.1176,-3.28413 0.79159,-4.13826 0.69859,-0.6563 0.95667,-0.69625 4.49878,-0.69625 3.75767,0 3.75767,0 5.29025,1.28316 0.84292,0.70573 1.63146,1.63541 1.75232,2.06594 0.2863,1.0199 0.28566,10.87753 -7.7e-4,11.89832 -0.12127,0.43221 -0.90228,1.32868 -1.73556,1.99215 -1.18411,0.9428 -1.76455,1.20632 -2.65706,1.20632 -1.14199,0 -1.14199,0 -1.14199,2.36108 0,2.36107 0,2.36107 2.21351,2.36107 1.21743,0 2.29936,-0.0332 2.40428,-0.0737 0.10496,-0.0406 0.1632,-1.01802 0.1295,-2.17208 -0.059,-2.02169 -0.0274,-2.12674 0.86485,-2.87756 0.73015,-0.61439 1.23766,-0.77926 2.39853,-0.77926 2.68519,0 3.47691,0.8127 3.49018,3.58269 0.0139,2.91901 -0.43687,3.35538 -3.44084,3.33028 -2.32447,-0.0194 -2.32447,-0.0194 -2.34028,2.55843 -0.0158,2.57785 -0.0158,2.57785 0.69306,2.30834 1.733,-0.6589 4.22535,-0.0898 4.76163,1.08717 0.35546,0.78013 0.44537,3.36959 0.15465,4.45365 -0.32157,1.19909 -3.40033,1.68158 -5.34231,0.8372 z m 184.87769,-0.0162 c -1.63317,-0.92356 -1.94489,-3.93318 -0.56709,-5.4752 1.53178,-1.71437 4.8907,-1.47627 5.86925,0.41603 0.56433,1.0913 0.38053,4.17407 -0.28878,4.84337 -0.65599,0.656 -3.98179,0.79916 -5.01338,0.2158 z M 263.39643,344.09407 c -1.35338,-0.61508 -1.6366,-1.86847 -1.51853,-6.72028 0.0924,-3.79673 0.1405,-4.08019 0.8137,-4.79593 0.63332,-0.67333 0.94687,-0.76071 2.72999,-0.76071 1.61233,0 2.13083,0.11635 2.59725,0.58277 0.85708,0.85708 0.94637,1.54183 0.84102,6.45046 -0.0754,3.51138 -0.19138,4.55313 -0.54658,4.90767 -0.65792,0.65671 -3.74677,0.8678 -4.91685,0.33602 z m 91.98414,-6.02346 c -0.63701,-0.51517 -0.75153,-0.89345 -0.87989,-2.90637 -0.14757,-2.31412 -0.14757,-2.31412 -2.4254,-2.46168 -2.88707,-0.18703 -3.25957,-0.51829 -3.42024,-3.04156 -0.11313,-1.77663 -0.0728,-1.91451 0.8201,-2.80745 0.93907,-0.93907 0.93907,-0.93907 4.57848,-0.93907 3.63943,0 3.63943,0 5.27753,1.33438 1.20961,0.98534 1.68657,1.59283 1.82345,2.32244 0.32129,1.71262 0.0278,8.07962 -0.39182,8.49826 -0.21285,0.2124 -1.31283,0.4248 -2.51415,0.48546 -1.79935,0.0909 -2.25107,0.0146 -2.86806,-0.48441 z m 86.57742,-0.17133 c -0.73837,-0.63513 -0.8321,-0.93127 -0.93411,-2.95134 -0.11339,-2.24538 -0.11339,-2.24538 -1.33545,-2.25476 -1.39345,-0.0112 -1.68369,-0.2009 -3.21422,-2.10623 -1.10676,-1.37777 -1.10676,-1.37777 -1.10676,-4.95388 0,-4.06552 0.2627,-4.77973 1.96469,-5.34143 1.37739,-0.45458 3.49932,-0.11411 4.23935,0.68022 0.47156,0.50616 0.58405,1.04251 0.58405,2.78476 0,2.15786 0,2.15786 5.03069,2.15786 4.94773,0 5.04266,0.0119 5.75513,0.72442 0.6399,0.63989 0.72442,0.98176 0.72442,2.93025 0,2.91779 -0.22271,3.13341 -3.23631,3.13341 -2.30874,0 -2.30874,0 -2.41728,2.38999 -0.13849,3.04964 -0.58198,3.51269 -3.36425,3.51269 -1.54582,0 -2.01121,-0.12213 -2.68995,-0.70596 z M 407.7724,326.75504 c -1.04528,-0.62869 -1.30913,-1.24648 -1.31871,-3.08762 -0.008,-1.55162 0.0969,-1.91069 0.74997,-2.56369 0.91495,-0.91495 2.08643,-1.21152 3.70528,-0.93802 1.90541,0.32192 2.32344,0.94784 2.32344,3.47885 0,2.93214 -0.2722,3.2548 -2.84538,3.37272 -1.21761,0.0558 -2.25955,-0.0487 -2.6146,-0.26224 z m 48.33419,0.14218 c -0.36196,-0.0753 -1.24129,-0.82521 -1.95405,-1.66655 -1.46425,-1.72838 -1.84668,-3.23774 -1.50772,-5.95067 0.14493,-1.15999 0.4317,-1.85468 1.05277,-2.55033 0.46948,-0.52584 0.85359,-1.06156 0.85359,-1.19047 0,-0.4312 1.72948,-1.13496 2.78911,-1.13496 1.04763,0 1.04763,0 1.0542,-1.99216 0.007,-2.1069 0.38875,-2.92508 1.67105,-3.58085 0.91254,-0.46668 2.92106,-0.40868 3.93085,0.1135 1.1972,0.6191 1.47116,1.88774 1.47311,6.82174 0.001,4.16601 0.001,4.16601 2.12632,4.31803 1.86362,0.13334 2.21177,0.25326 2.83346,0.97602 0.63628,0.73971 0.69766,1.04427 0.60006,2.97705 -0.0614,1.21543 -0.27327,2.31783 -0.48657,2.53145 -0.28247,0.2829 -2.06921,0.38936 -7.07797,0.42173 -3.68507,0.0238 -6.99627,-0.0183 -7.35821,-0.0935 z m -193.32341,-6.294 c -0.83707,-0.77984 -1.0468,-2.07214 -0.90585,-5.58143 0.11693,-2.91107 0.11693,-2.91107 1.52567,-4.56003 1.26651,-1.48246 1.55617,-1.66852 2.8685,-1.84261 1.45972,-0.19364 1.45972,-0.19364 1.45972,-5.28209 0,-5.08844 0,-5.08844 -1.40189,-5.24571 -1.23965,-0.13908 -1.56112,-0.33769 -2.77779,-1.7162 -0.75676,-0.85741 -1.45401,-1.94939 -1.54946,-2.42664 -0.22538,-1.1269 -0.22538,-9.01986 0,-10.14676 0.0955,-0.47724 0.80993,-1.58953 1.58772,-2.47174 1.41418,-1.60404 1.41418,-1.60404 4.58538,-1.60404 2.96095,0 3.20049,0.0441 3.61312,0.66405 0.24306,0.36523 0.61314,0.66405 0.8224,0.66405 0.20925,0 0.7243,0.40862 1.14454,0.90805 0.74194,0.88174 0.76407,1.02706 0.76407,5.01728 0,4.10923 0,4.10923 2.36107,4.10923 2.36107,0 2.36107,0 2.36107,-3.76728 0,-3.76728 0,-3.76728 1.10676,-5.2858 1.61245,-2.21238 1.89168,-2.30958 6.63448,-2.30958 4.1086,0 4.1086,0 3.93881,-0.84851 -0.0934,-0.46668 -0.16981,-1.49596 -0.16981,-2.28729 0,-1.43879 0,-1.43879 -1.5792,-1.43879 -1.90372,0 -3.3478,-0.46038 -3.73944,-1.19217 -0.1589,-0.2969 -0.28891,-1.40002 -0.28891,-2.45136 0,-1.77221 0.0661,-1.96724 0.90805,-2.67561 0.77064,-0.64846 1.19489,-0.76408 2.80377,-0.76408 1.89573,0 1.89573,0 1.89573,-5.16484 0,-5.16485 0,-5.16485 -2.17568,-5.16485 -2.17567,0 -2.17567,0 -2.32235,4.0581 -0.0806,2.23195 -0.24472,4.29053 -0.36455,4.57463 -0.11985,0.28409 -0.88507,1.04775 -1.70052,1.69702 -1.13385,0.90279 -1.74244,1.18049 -2.58706,1.18049 -1.10444,0 -1.10444,0 -1.25227,1.53854 -0.13431,1.39782 -0.27948,1.65332 -1.58701,2.79319 -1.69708,1.47949 -2.67274,1.69713 -6.79907,1.51666 -2.65404,-0.11609 -2.87812,-0.1755 -3.53286,-0.93669 -0.56083,-0.65199 -0.69781,-1.14513 -0.69254,-2.4933 0.01,-2.61226 1.09542,-3.59895 3.95835,-3.59895 1.64264,0 1.64264,0 1.64264,-5.14254 0,-5.14254 0,-5.14254 -4.16809,-5.23863 -4.1681,-0.096 -4.1681,-0.096 -5.59979,-1.71932 -1.02411,-1.16111 -1.48182,-1.95933 -1.60772,-2.80377 -0.0968,-0.64931 -0.13351,-4.61758 -0.0815,-8.81841 0.0934,-7.54381 0.10262,-7.64329 0.75854,-8.07841 0.36523,-0.24229 0.66405,-0.61175 0.66405,-0.82101 0,-0.20925 0.40862,-0.72429 0.90804,-1.14454 0.90805,-0.76406 0.90805,-0.76406 6.86187,-0.76081 5.95383,0.003 5.95383,0.003 7.53196,1.40188 1.39727,1.23835 1.59616,1.55931 1.73541,2.80053 0.15162,1.35155 0.1916,1.40189 1.1133,1.40189 1.03721,0 3.70336,1.8778 4.33682,3.05446 0.18793,0.3491 0.40174,2.38448 0.47513,4.52308 0.13343,3.88836 0.13343,3.88836 4.03663,3.98431 3.90319,0.0959 3.90319,0.0959 5.54197,1.49689 1.46255,1.25027 1.66017,1.5564 1.8376,2.84648 0.19881,1.44555 0.19881,1.44555 2.42093,1.55775 2.9273,0.14782 3.33859,0.59453 3.33859,3.62608 0,2.71115 -0.26877,2.97428 -3.32026,3.25045 -2.28729,0.20699 -2.28729,0.20699 -2.28729,2.39532 0,2.18832 0,2.18832 1.78546,2.18832 1.87709,0 3.3295,0.53539 3.63876,1.34133 0.26515,0.69097 0.21682,4.34678 -0.0632,4.7881 -0.33817,0.53281 -2.00543,0.95379 -3.77726,0.95379 -1.51915,0 -1.51915,0 -1.64985,2.28729 -0.15063,2.6361 -0.0964,2.83778 0.65496,2.43566 0.30412,-0.16276 1.28401,-0.29593 2.17752,-0.29593 1.62456,0 1.62456,0 1.82724,-1.35157 0.11329,-0.75558 0.39154,-1.42405 0.63095,-1.51593 0.23555,-0.0904 0.5476,-0.47819 0.69345,-0.86179 0.51575,-1.35652 1.90833,-1.87594 5.03271,-1.87715 2.63278,-0.001 2.89529,0.0532 3.68919,0.76252 2.55699,2.28451 2.42121,2.05982 2.52661,4.18117 0.0544,1.09497 0.0264,2.67913 -0.062,3.52038 -0.14159,1.34581 -0.31883,1.67224 -1.47567,2.7179 -0.72311,0.65362 -1.72959,1.27188 -2.23661,1.37389 -0.50703,0.10206 -3.76089,0.14066 -7.23079,0.0859 -6.30892,-0.0996 -6.30892,-0.0996 -6.30892,2.4699 0,2.56953 0,2.56953 0.73784,2.36107 1.45784,-0.41188 3.57071,-0.13643 4.31466,0.56247 0.61273,0.57563 0.70261,0.92944 0.70261,2.76573 0,2.8272 -0.29211,3.18569 -2.72194,3.3404 -2.24755,0.14311 -3.65803,-0.4215 -3.94899,-1.58076 -0.10262,-0.40878 -0.12925,-1.53524 -0.0592,-2.50328 0.12731,-1.76004 0.12731,-1.76004 -2.17881,-1.76004 -2.516,0 -3.27901,-0.39799 -3.65799,-1.908 -0.17609,-0.70159 -0.077,-2.43107 0.19514,-3.40442 0.0775,-0.27721 -0.0693,-0.43351 -0.39273,-0.41811 -0.28407,0.0135 -1.37975,0.0467 -2.43486,0.0737 -1.91837,0.0492 -1.91837,0.0492 -1.91837,2.22827 0,2.34689 0.14196,2.52781 1.99216,2.53903 0.36523,0.002 0.66405,0.12824 0.66405,0.28003 0,0.15179 0.5236,0.64984 1.16357,1.10676 0.63995,0.45691 1.304,1.13582 1.47566,1.50869 0.17166,0.37287 0.31211,2.38352 0.31211,4.46811 0,4.86364 -0.14263,5.09546 -3.16704,5.14755 -1.84064,0.0317 -2.19032,-0.0514 -2.85909,-0.67939 -0.68473,-0.64299 -0.76195,-0.93463 -0.76195,-2.87756 0,-2.16207 0,-2.16207 -5.31242,-2.16207 -5.31241,0 -5.31241,0 -5.31241,5.16485 0,5.16485 0,5.16485 4.7368,5.16485 5.61445,0 6.27249,0.20558 6.78818,2.12071 0.37475,1.39173 0.16185,3.42738 -0.4454,4.25861 -0.37813,0.51761 -0.97057,0.56266 -8.50985,0.64721 -8.10342,0.0909 -8.10342,0.0909 -8.24165,2.47877 -0.17122,2.95762 -0.40944,3.18547 -3.33043,3.18547 -1.69212,0 -2.22463,-0.11475 -2.73378,-0.5891 z m 31.96138,-35.07679 c 1.94794,0.10017 1.94794,0.10017 2.00267,-2.33393 0.0596,-2.64901 0.45342,-2.44573 -4.71457,-2.43309 -0.15057,3.7e-4 -0.21221,2.82917 -0.11169,5.12674 0.007,0.14162 0.20574,0.096 0.44345,-0.10118 0.27386,-0.22727 1.14583,-0.32198 2.38014,-0.25851 z m -15.50311,-37.05118 c 0,-2.17999 0,-2.17999 -1.40188,-2.38706 -1.18657,-0.17527 -1.61721,-0.43902 -2.80378,-1.71729 -0.95684,-1.0308 -1.40188,-1.76443 -1.40188,-2.31095 0,-1.60683 -0.18683,-1.7344 -2.54022,-1.7344 -2.18194,0 -2.18194,0 -2.18194,5.16485 0,5.16485 0,5.16485 5.16485,5.16485 5.16485,0 5.16485,0 5.16485,-2.18 z m 75.98365,71.99265 c -0.61437,-0.61436 -0.72442,-1.00423 -0.72442,-2.56627 0,-1.59672 0.10552,-1.95203 0.79305,-2.66962 0.70608,-0.737 0.99884,-0.82777 2.66963,-0.82777 1.59889,0 1.98376,0.1072 2.60099,0.72442 0.63204,0.63205 0.72442,0.98958 0.72442,2.80377 0,1.68584 -0.11171,2.19106 -0.59027,2.66963 -0.47856,0.47856 -0.98378,0.59026 -2.66963,0.59026 -1.8142,0 -2.17173,-0.0924 -2.80377,-0.72442 z m -16.5563,-5.16268 c -1.07923,-0.45786 -1.58104,-1.49532 -1.58104,-3.2687 0,-0.90536 0.15937,-1.80548 0.35416,-2.00027 0.42196,-0.42195 0.80139,-0.39277 -4.6089,-0.35446 -4.10718,0.0291 -4.10718,0.0291 -5.68134,-1.66236 -1.57416,-1.69145 -1.57416,-1.69145 -1.57416,-5.59571 0,-3.90425 0,-3.90425 0.90805,-4.66833 1.60824,-1.35324 5.3565,-0.83562 5.72602,0.79075 0.0823,0.36228 0.18384,1.45555 0.22562,2.42949 0.076,1.7708 0.076,1.7708 1.84677,1.84678 0.97395,0.0418 2.06722,0.14331 2.42949,0.22562 1.06556,0.2421 1.62525,1.70481 1.50884,3.94316 -0.0849,1.6332 -0.0291,1.9289 0.34112,1.8055 0.24349,-0.0812 2.5461,-0.14757 5.11693,-0.14757 4.67422,0 4.67422,0 5.41658,0.86339 0.66835,0.77734 0.73101,1.06407 0.62859,2.87662 -0.17057,3.01861 -0.1994,3.03415 -5.78589,3.11625 -2.55111,0.0375 -4.92298,-0.0525 -5.27084,-0.20016 z m 69.22004,-0.0493 c -0.99804,-0.36627 -1.44612,-1.39472 -1.43798,-3.30046 0.01,-2.31795 1.17102,-3.45394 3.5303,-3.45394 1.36637,0 2.79244,0.6235 3.0679,1.34133 0.26514,0.69096 0.21682,4.34678 -0.0632,4.7881 -0.53035,0.83556 -3.52319,1.20254 -5.09693,0.62497 z m 5.93489,-11.55421 c -2.0219,-0.71525 -2.36511,-4.32594 -0.56416,-5.93521 0.89088,-0.79607 1.07022,-0.83935 2.92712,-0.7065 1.97809,0.14153 1.97809,0.14153 1.83791,-1.81766 -0.12791,-1.78771 -0.0727,-2.03941 0.63106,-2.87574 0.91143,-1.08319 2.24602,-1.41454 4.05777,-1.00747 1.74131,0.39125 2.02919,0.90006 2.02919,3.58649 0,2.90591 -0.18887,3.07863 -3.36653,3.07863 -2.38858,0 -2.38858,0 -2.38858,2.42358 0,1.76631 -0.12006,2.54024 -0.44271,2.8538 -0.62301,0.60548 -3.46066,0.84595 -4.72107,0.40008 z m 11.14399,-17.5021 c -0.97445,-0.52873 -1.19692,-1.29224 -1.0639,-3.65126 0.10095,-1.79052 0.10095,-1.79052 -2.15362,-1.78998 -3.05769,7.3e-4 -3.5712,-0.41161 -3.73601,-2.9999 -0.10965,-1.72219 -0.047,-1.98661 0.67379,-2.84321 0.7386,-0.87777 0.92547,-0.94444 2.64703,-0.94444 1.42707,0 2.03088,0.14043 2.62997,0.61169 0.72951,0.57383 0.77764,0.76468 0.77764,3.08355 0,2.47187 0,2.47187 0.90603,2.15603 0.49831,-0.17371 1.5232,-0.24627 2.27755,-0.16125 1.95923,0.22083 2.72042,1.17456 2.71508,3.40181 -0.006,2.37201 -0.21602,2.92476 -1.25012,3.28524 -1.26981,0.44267 -3.47028,0.3689 -4.42344,-0.14828 z M 314.82306,268.55559 c -0.65371,-0.65371 -0.75577,-1.01121 -0.75577,-2.64731 0,-1.661 0.097,-1.98856 0.796,-2.68754 0.73118,-0.73119 0.96549,-0.7905 2.87756,-0.72849 1.78192,0.0578 2.07801,-0.003 2.05696,-0.42478 -0.0135,-0.27077 -0.0467,-1.35557 -0.0737,-2.41067 -0.0492,-1.91837 -0.0492,-1.91837 -1.83464,-1.91837 -1.87709,0 -3.32949,-0.53539 -3.63876,-1.34133 -0.10084,-0.26277 -0.18334,-1.26979 -0.18334,-2.23784 0,-3.00202 1.22937,-3.67559 6.30352,-3.45367 2.67378,0.11695 2.77601,0.14817 4.13708,1.26347 0.76756,0.62895 1.54145,1.41614 1.71977,1.74932 0.40957,0.76531 0.67315,5.58106 0.40377,7.37742 -0.30569,2.0385 -0.7112,2.29673 -3.49119,2.22326 -2.35968,-0.0624 -2.35968,-0.0624 -2.39605,2.47636 -0.0233,1.6275 -0.1722,2.67449 -0.41479,2.91695 -0.21499,0.21487 -1.32254,0.42588 -2.56449,0.48861 -2.02576,0.10229 -2.24148,0.055 -2.94184,-0.64539 z m 26.69171,-5.13967 c -1.20019,-0.0702 -1.47728,-0.24069 -2.87703,-1.77081 -1.27085,-1.38921 -1.54901,-1.88497 -1.54945,-2.76155 -5.2e-4,-1.05567 -0.0172,-1.07023 -1.40242,-1.22524 -1.21709,-0.13621 -1.57043,-0.34552 -2.68049,-1.58785 -0.70323,-0.78702 -1.40048,-1.73842 -1.54945,-2.11421 -0.38225,-0.96428 -0.33758,-6.45587 0.0588,-7.23099 0.60608,-1.18513 1.50161,-1.66412 3.12426,-1.67105 2.84744,-0.0122 3.62929,0.81593 3.62929,3.84407 0,1.75692 0,1.75692 2.18192,1.75692 2.31353,0 2.54022,-0.14224 2.54022,-1.59377 0,-0.36304 0.46474,-1.18225 1.03274,-1.82045 0.568,-0.6382 1.03284,-1.23866 1.03297,-1.33434 8.1e-4,-0.60776 1.9037,-0.8923 5.56309,-0.83185 3.97487,0.0657 3.97487,0.0657 3.91086,-2.12655 -0.059,-2.02191 -0.004,-2.24838 0.70549,-2.91513 0.62847,-0.59042 1.14552,-0.74416 2.82106,-0.83883 2.05157,-0.11593 2.05157,-0.11593 2.05157,-2.29613 0,-2.1802 0,-2.1802 -2.18192,-2.1802 -2.37442,0 -2.54022,0.11867 -2.54022,1.81809 0,0.90293 -1.52408,2.73048 -2.88405,3.45831 -0.42951,0.22986 -4.45251,0.33115 -13.15367,0.33115 -12.53492,0 -12.53492,0 -12.74454,1.52419 -0.17963,1.30604 -0.39855,1.69679 -1.52949,2.73 -1.56237,1.42733 -1.99094,1.5809 -4.51409,1.61743 -2.59889,0.0376 -3.93991,-0.38415 -4.85519,-1.52703 -0.41869,-0.5228 -0.92527,-1.1442 -1.12572,-1.3809 -0.20046,-0.23669 -0.43089,-0.96715 -0.51205,-1.62324 -0.13261,-1.07203 -0.23726,-1.20109 -1.03296,-1.27382 -1.79893,-0.16442 -2.21287,-0.40079 -3.52699,-2.01401 -1.34272,-1.64835 -1.34272,-1.64835 -1.34272,-16.84341 0,-15.19506 0,-15.19506 0.88901,-16.08407 0.84749,-0.84749 0.9876,-0.88448 2.99878,-0.79156 2.10976,0.0975 2.10976,0.0975 2.04426,-2.14575 -0.0638,-2.18576 -0.0417,-2.26318 0.86061,-3.02249 0.92611,-0.77927 0.92611,-0.77927 7.41051,-0.77927 6.48441,0 6.48441,0 7.16821,0.73784 0.37609,0.40581 0.82782,0.73784 1.00385,0.73784 0.70698,0 1.82577,1.96123 1.82577,3.20054 0,1.22647 0,1.22647 2.36108,1.22647 2.36106,0 2.36106,0 2.36763,-1.99216 0.007,-2.10689 0.38875,-2.92507 1.67105,-3.58085 0.91578,-0.46833 2.9223,-0.40804 3.94031,0.11839 0.966,0.49953 1.13173,0.97152 1.24176,3.53625 0.076,1.77081 0.076,1.77081 1.84677,1.84677 2.58707,0.11099 3.03632,0.27501 3.56769,1.30256 0.55934,1.08164 0.4746,4.4359 -0.12733,5.03982 -0.20618,0.20687 -1.4351,0.43474 -2.78983,0.51731 -2.42133,0.14757 -2.42133,0.14757 -2.50151,5.46604 -0.0802,5.31847 -0.0802,5.31847 2.12179,5.20728 2.06386,-0.10418 2.25133,-0.0618 2.98909,0.67593 0.73678,0.73678 0.78006,0.92694 0.67673,2.97319 -0.0619,1.22508 -0.27443,2.35011 -0.48355,2.55923 -0.20913,0.20913 -1.33416,0.42169 -2.55924,0.48356 -2.00915,0.1015 -2.24532,0.0511 -2.9182,-0.62174 -0.87434,-0.87434 -1.26512,-2.92855 -0.7928,-4.16744 0.17877,-0.46891 0.28812,-0.88685 0.243,-0.92878 -0.0452,-0.0419 -1.2541,-0.12311 -2.68661,-0.18042 -2.60456,-0.10418 -2.60456,-0.10418 -2.43485,0.74432 0.0934,0.46668 0.16971,1.56237 0.16971,2.43486 0,1.58635 0,1.58635 1.0059,1.58635 0.75553,0 1.41622,0.33423 2.65426,1.34272 1.61322,1.31412 1.8496,1.72806 2.01402,3.52699 0.0809,0.8854 0.0809,0.8854 2.36822,0.9716 2.28729,0.0862 2.28729,0.0862 2.28729,-1.1087 0,-0.90673 0.17795,-1.34962 0.73783,-1.83644 0.40581,-0.35285 0.73784,-0.75596 0.73784,-0.8958 0,-0.86851 2.01482,-2.00037 3.56082,-2.00037 0.86619,0 0.86619,0 0.86619,-4.99105 0,-4.99104 0,-4.99104 0.94445,-5.78574 0.8566,-0.72078 1.12102,-0.78345 2.8432,-0.67379 2.92343,0.18615 3.00045,0.35112 3.00045,6.4276 0,4.94621 0,4.94621 1.25432,5.08944 0.99628,0.11377 1.58685,0.45127 2.87078,1.64061 1.61646,1.49738 1.61646,1.49738 1.73051,5.65028 0.11405,4.15288 0.11405,4.15288 5.24541,4.15288 5.13135,0 5.13135,0 5.13135,-7.73113 0,-7.73111 0,-7.73111 0.79306,-8.55888 0.73459,-0.76675 0.96075,-0.82777 3.06782,-0.82777 2.27478,0 2.27478,0 2.01777,-1.10675 -0.29396,-1.26583 -0.36474,-12.51768 -0.0874,-13.90401 0.10095,-0.50496 0.51753,-1.25202 0.92565,-1.66013 0.63824,-0.63825 1.00659,-0.74203 2.63356,-0.74203 1.62363,0 1.99594,0.10441 2.62865,0.7371 0.7371,0.7371 0.7371,0.7371 0.69731,8.75454 -0.0398,8.01745 -0.0398,8.01745 2.03667,7.9501 1.14205,-0.037 2.34373,0.0757 2.6704,0.25052 0.70868,0.37928 1.20613,1.99558 1.20839,3.92632 10e-4,1.40189 10e-4,1.40189 2.18186,1.40189 2.1802,0 2.1802,0 2.29612,-2.05157 0.0938,-1.66112 0.25041,-2.19473 0.82259,-2.80377 0.61103,-0.65043 0.95601,-0.75221 2.54945,-0.75221 2.28159,0 2.6866,0.15067 3.23008,1.20164 0.53585,1.03623 0.56846,6.76867 0.0462,8.12356 -0.56452,1.46453 -2.48593,2.95673 -4.11523,3.19593 -1.40189,0.2058 -1.40189,0.2058 -1.40591,4.98365 -0.002,2.62782 -0.0819,5.06832 -0.17714,5.42334 -0.43659,1.62803 -5.45561,1.69213 -6.31801,0.0806 -0.1589,-0.2969 -0.28891,-2.72444 -0.28891,-5.39451 0,-4.78503 -0.01,-4.85725 -0.66406,-5.03266 -0.36522,-0.0979 -1.02443,-0.17978 -1.46491,-0.18199 -0.61675,-0.003 -1.14255,-0.41462 -2.28729,-1.79016 -1.48642,-1.78613 -1.48642,-1.78613 -1.48642,-5.18425 0,-1.86896 0.13244,-3.6456 0.29431,-3.94806 0.27558,-0.51492 0.12357,-0.55597 -2.38699,-0.64465 -1.47471,-0.0521 -2.70284,-0.0729 -2.72917,-0.0464 -0.0263,0.0266 0.0185,2.41713 0.0997,5.31242 0.14756,5.26414 0.14756,5.26414 1.33328,5.35155 0.93111,0.0686 1.53318,0.39372 2.80378,1.51394 1.61805,1.42654 1.61805,1.42654 1.68412,8.76662 0.0521,5.78615 0.1458,7.31778 0.44269,7.23473 1.2092,-0.33828 2.58826,-0.33502 3.62312,0.009 1.01509,0.337 1.2374,0.57168 1.58627,1.67442 0.29238,0.92415 0.33361,1.70542 0.14757,2.79629 -0.31366,1.83919 -0.94986,2.25593 -3.45357,2.26226 -1.51021,0.003 -1.82483,-0.10072 -2.58242,-0.85835 -0.72984,-0.72984 -0.8627,-1.09645 -0.8627,-2.38047 0,-0.83479 0.13748,-1.77467 0.30551,-2.08865 0.29074,-0.54323 0.18611,-0.57086 -2.16205,-0.57086 -3.21607,0 -3.69736,-0.42609 -3.95519,-3.50156 -0.17657,-2.10599 -0.17657,-2.10599 -13.08277,-2.10599 -7.09842,0 -13.33907,-0.0866 -13.86811,-0.19238 -0.9619,-0.19238 -0.9619,-0.19238 -0.77572,1.40188 0.20724,1.77456 -0.15271,3.76307 -0.74968,4.14157 -0.21464,0.1361 -1.41955,0.24947 -2.67755,0.25196 -2.28729,0.004 -2.28729,0.004 -2.30804,4.06261 -0.0114,2.23195 -0.11098,4.27903 -0.22135,4.54904 -0.11032,0.27002 -0.79869,1.01612 -1.52966,1.658 -1.20517,1.05826 -1.50784,1.17758 -3.24648,1.27987 -1.05458,0.062 -2.51506,0.0779 -3.24552,0.0351 z m -15.98918,-31.2003 c 0.0721,-0.88478 0.4216,-1.55585 1.41782,-2.72194 1.17551,-1.37593 1.48418,-1.56915 2.78194,-1.7413 1.45973,-0.19364 1.45973,-0.19364 1.45973,-1.75964 0,-0.86131 0.12952,-1.90668 0.28782,-2.32305 0.28784,-0.75705 0.28784,-0.75705 -2.17558,-0.75705 -2.46341,0 -2.46341,0 -2.60291,2.40964 -0.1748,3.0195 -0.60884,3.49304 -3.20163,3.49304 -2.04387,0 -3.04331,-0.3936 -3.49025,-1.37454 -0.19641,-0.43105 -0.32768,-2.60543 -0.32768,-5.42743 0,-4.70827 0,-4.70827 -2.21352,-4.70827 -2.2135,0 -2.2135,0 -2.2135,8.12316 0,8.12316 0,8.12316 5.09106,8.04242 5.09107,-0.0808 5.09107,-0.0808 5.1867,-1.25504 z m 11.68023,-10.4574 c -0.0163,-0.17669 -0.0494,-1.23382 -0.0737,-2.34918 -0.0443,-2.0279 -0.0443,-2.0279 -1.504,-2.22155 -1.30615,-0.17327 -1.60394,-0.36245 -2.83041,-1.79805 -0.98001,-1.1471 -1.41623,-1.94395 -1.53048,-2.79571 -0.15979,-1.19132 -0.15979,-1.19132 -2.33444,-1.19132 -2.17464,0 -2.17464,0 -2.17464,2.36106 0,2.36108 0,2.36108 2.07936,2.36108 1.81419,0 2.17172,0.0924 2.80377,0.72442 0.64525,0.64526 0.72441,0.97583 0.72431,3.02512 -1.3e-4,2.30071 -1.3e-4,2.30071 2.43485,2.25305 1.55048,-0.0303 2.42425,-0.16437 2.40546,-0.36892 z m -17.53097,-13.74986 c 0,-2.21351 0,-2.21351 -1.40189,-2.21676 -0.77105,-0.002 -1.87351,-0.0813 -2.44994,-0.17665 -1.04803,-0.17342 -1.04803,-0.17342 -0.76966,2.21675 0.27838,2.39016 0.27838,2.39016 2.44993,2.39016 2.17156,0 2.17156,0 2.17156,-2.2135 z m -22.32741,43.07165 c -0.70021,-0.70021 -0.74767,-0.91629 -0.64549,-2.93964 0.11032,-2.18387 0.11032,-2.18387 -1.57986,-2.00721 -2.05139,0.21441 -3.34104,-0.24611 -3.94162,-1.40751 -0.49861,-0.96421 -0.56431,-3.00513 -0.12327,-3.82924 0.29035,-0.54249 0.18705,-0.57086 -2.07935,-0.57086 -2.13858,0 -2.45969,-0.0748 -3.10929,-0.72442 -0.61843,-0.61842 -0.72442,-1.00116 -0.72442,-2.61596 0,-1.65022 0.0993,-1.99081 0.77809,-2.66963 0.6788,-0.6788 1.01939,-0.77807 2.66961,-0.77807 1.6148,0 1.99754,0.10597 2.61596,0.72442 0.64961,0.6496 0.72442,0.97071 0.72442,3.10929 0,2.35707 0.008,2.38086 0.64165,2.04147 0.40061,-0.2144 1.31853,-0.28018 2.44354,-0.17513 1.80189,0.16826 1.80189,0.16826 1.6849,-1.90209 -0.10976,-1.9422 -0.0658,-2.12382 0.7106,-2.93416 0.74502,-0.77764 1.01475,-0.8638 2.70414,-0.8638 1.5989,0 1.98377,0.1072 2.60099,0.72442 0.63204,0.63204 0.72442,0.98958 0.72442,2.80377 0,2.94514 -0.44697,3.35611 -3.49772,3.216 -2.2574,-0.10363 -2.2574,-0.10363 -2.2574,2.42969 0,2.53336 0,2.53336 2.11586,2.39757 1.97073,-0.12647 2.1681,-0.0836 2.87756,0.62591 0.67469,0.67471 0.7617,0.99923 0.7617,2.84107 0,2.83665 -0.42323,3.25989 -3.25989,3.25989 -1.83762,0 -2.16721,-0.0879 -2.83513,-0.75578 z m -32.14729,-22.55003 c -0.33699,-0.13635 -1.20026,-0.94969 -1.91838,-1.80739 -1.30566,-1.55948 -1.30566,-1.55948 -1.30566,-18.69575 0,-17.13627 0,-17.13627 1.18053,-18.66528 0.64929,-0.84095 1.56558,-1.67101 2.0362,-1.84459 0.57039,-0.21037 6.48574,-0.31558 17.74328,-0.31558 16.88762,0 16.88762,0 18.40717,1.20988 0.83574,0.66544 1.64996,1.45357 1.80936,1.75141 0.46327,0.86564 0.38739,35.4623 -0.0791,36.06553 -0.2029,0.26237 -0.94593,0.95181 -1.65116,1.53207 -1.28224,1.05504 -1.28224,1.05504 -18.44589,1.03633 -9.44,-0.01 -17.43936,-0.13028 -17.77634,-0.26663 z m 31.45423,-20.52162 c 0,-13.72375 0,-13.72375 -13.87132,-13.72375 -13.87131,0 -13.87131,0 -13.87131,13.72375 0,13.72374 0,13.72374 13.87131,13.72374 13.87132,0 13.87132,0 13.87132,-13.72374 z m -19.69427,9.08922 c -0.36195,-0.0699 -1.29162,-0.86868 -2.06594,-1.77502 -1.40783,-1.64789 -1.40783,-1.64789 -1.40783,-7.3142 0,-5.66632 0,-5.66632 1.41034,-7.31715 1.72002,-2.0133 1.93757,-2.06061 8.86304,-1.92742 4.62777,0.089 4.99449,0.13713 5.45998,0.71667 0.27447,0.34169 0.73068,0.70247 1.01382,0.80171 0.28313,0.0993 0.78067,0.61653 1.10564,1.14954 0.53678,0.8804 0.59096,1.48783 0.59196,6.63654 10e-4,6.00652 -0.1495,6.83585 -1.3596,7.48347 -0.38787,0.20759 -0.70523,0.48439 -0.70523,0.61512 0,0.13073 -0.39183,0.44031 -0.87075,0.68796 -0.69465,0.35922 -1.93319,0.44215 -6.12403,0.41009 -2.88932,-0.0221 -5.54944,-0.0974 -5.9114,-0.16731 z m 90.37891,11.39344 c -1.30582,-0.75074 -1.32811,-0.90473 -1.32811,-9.1764 0,-7.91221 0,-7.91221 -1.22645,-7.91221 -1.2955,0 -3.20056,-1.12939 -3.20056,-1.8974 0,-0.21543 -0.27395,-0.5739 -0.60879,-0.7966 -0.39049,-0.25973 -0.66838,-0.85018 -0.77501,-1.64674 -0.16189,-1.20933 -0.20054,-1.24694 -1.47807,-1.43853 -1.35749,-0.20356 -3.04082,-1.34263 -3.04082,-2.05764 0,-0.22335 -0.26561,-0.54825 -0.59026,-0.72199 -0.45496,-0.24348 -0.59027,-0.61796 -0.59027,-1.63363 0,-1.31771 0,-1.31771 -1.90448,-1.31771 -3.15328,0 -3.99821,-0.74659 -3.99821,-3.53285 0,-1.11246 0.17105,-1.64241 0.75347,-2.33458 0.69313,-0.82375 0.9235,-0.90234 2.87755,-0.98183 2.1241,-0.0863 2.1241,-0.0863 2.2105,-2.2105 0.0795,-1.95405 0.15808,-2.18442 0.98183,-2.87755 1.44048,-1.21209 4.41743,-0.99434 5.48912,0.4015 0.24873,0.32395 0.36243,1.99181 0.36892,5.41177 0.009,4.9435 0.009,4.9435 1.02703,4.9435 0.78671,0 1.41627,0.33174 2.77418,1.4618 1.60922,1.3392 1.7737,1.58669 1.96138,2.95133 0.20487,1.48955 0.20487,1.48955 2.39069,1.48955 2.1858,0 2.1858,0 2.1858,-1.60402 0,-0.88222 0.12953,-1.9447 0.28784,-2.36107 0.28782,-0.75705 0.28782,-0.75705 -2.07936,-0.75705 -2.11979,0 -2.4429,-0.0757 -3.09161,-0.72443 -0.61722,-0.61722 -0.72442,-1.00209 -0.72442,-2.60098 0,-1.67079 0.0908,-1.96355 0.82777,-2.66963 0.7176,-0.6875 1.07291,-0.79305 2.66963,-0.79305 1.56203,0 1.95191,0.1101 2.56628,0.72442 0.6496,0.6496 0.72441,0.97072 0.72441,3.1093 0,2.3466 0.01,2.37944 0.6326,2.04631 0.36199,-0.19373 1.33024,-0.28069 2.2635,-0.2033 1.31251,0.10887 1.76522,0.29137 2.31876,0.93489 0.68782,0.79965 0.68782,0.79965 0.67451,10.15371 -0.009,6.64766 -0.11619,9.57719 -0.36892,10.1253 -0.63598,1.37933 -2.50563,2.73561 -4.00964,2.90865 -1.36324,0.15685 -1.36324,0.15685 -1.51081,2.57817 -0.0837,1.37258 -0.30971,2.58293 -0.5219,2.79444 -0.4937,0.49206 -4.17721,0.65249 -4.93808,0.21505 z m 71.10491,0.0389 c -0.33699,-0.13636 -1.16706,-0.91004 -1.84459,-1.71927 -1.23189,-1.47135 -1.23189,-1.47135 -1.22863,-18.84331 0.003,-17.37197 0.003,-17.37197 1.44006,-18.99521 1.4368,-1.62324 1.4368,-1.62324 18.98207,-1.70376 17.54527,-0.0805 17.54527,-0.0805 18.55528,0.83938 0.55552,0.50594 1.29174,1.1705 1.63606,1.4768 0.34432,0.30629 0.70955,0.97446 0.81161,1.48481 0.24202,1.21005 0.23585,32.53274 -0.007,34.0005 -0.14895,0.90137 -0.5048,1.38418 -1.79462,2.43485 -1.60882,1.31054 -1.60882,1.31054 -18.77333,1.29184 -9.44049,-0.01 -17.44023,-0.13028 -17.77722,-0.26663 z m 31.45422,-20.52162 c 0,-13.72375 0,-13.72375 -13.8713,-13.72375 -13.87131,0 -13.87131,0 -13.87131,13.72375 0,13.72373 0,13.72373 13.87131,13.72373 13.8713,0 13.8713,0 13.8713,-13.72373 z m -19.92155,8.88729 c -0.48697,-0.22249 -1.08463,-0.70518 -1.32811,-1.07263 -0.24348,-0.36745 -0.74152,-1.00057 -1.10674,-1.40691 -0.63996,-0.71202 -0.66407,-0.94454 -0.66407,-6.40775 0,-5.46322 0.0241,-5.69574 0.66407,-6.40775 0.36522,-0.40636 0.86326,-1.03967 1.10674,-1.40738 0.83668,-1.26351 1.96084,-1.48161 7.63696,-1.48161 5.29484,0 5.29484,0 6.94318,1.34274 0.91463,0.74505 1.74773,1.69748 1.87164,2.13972 0.2822,1.00718 0.29442,10.87498 0.0147,11.86517 -0.11473,0.40616 -0.84341,1.26942 -1.61929,1.91837 -1.41067,1.17989 -1.41067,1.17989 -7.02217,1.25122 -4.24985,0.054 -5.82634,-0.0268 -6.4969,-0.33319 z m -53.71443,0.0881 c -1.06052,-0.615 -1.32822,-1.23391 -1.32154,-3.05531 0.0115,-3.1168 1.78471,-4.31241 5.05056,-3.40527 0.76882,0.21355 1.17586,0.54675 1.43645,1.1759 0.42871,1.03499 0.27892,4.55916 -0.21477,5.05284 -0.47549,0.47549 -4.22754,0.6512 -4.9507,0.23184 z m 24.71225,-5.77854 c -0.20579,-0.0829 -0.96945,-0.88138 -1.69703,-1.77456 -0.99065,-1.21614 -1.32285,-1.87655 -1.32285,-2.62986 0,-1.00592 0,-1.00592 -6.12404,-1.00917 -8.07678,-0.004 -8.03978,0.003 -9.75123,-2.00042 -1.39009,-1.62748 -1.39009,-1.62748 -1.39009,-7.4116 0,-5.78414 0,-5.78414 0.95919,-6.77454 0.52755,-0.54472 0.95918,-1.11594 0.95918,-1.26938 0,-0.15344 0.46058,-0.47142 1.0235,-0.70662 0.83656,-0.34954 3.20578,-0.42765 12.97201,-0.42765 8.12825,0 12.17848,0.10475 12.66771,0.32768 0.98093,0.44695 1.37454,1.44639 1.37454,3.49026 0,1.25266 -0.15297,1.91313 -0.5593,2.41492 -0.54097,0.66808 -0.72941,0.6944 -5.75511,0.80401 -5.19583,0.11331 -5.19583,0.11331 -5.19583,2.29334 0,2.18003 0,2.18003 1.00592,2.18003 0.75552,0 1.41622,0.33424 2.65426,1.34273 1.61322,1.31412 1.84959,1.72806 2.01401,3.52699 0.0809,0.8854 0.0809,0.8854 2.39505,1.03297 2.01291,0.12835 2.3912,0.24288 2.90636,0.87989 0.50102,0.61951 0.57534,1.0673 0.48247,2.90662 -0.15011,2.97249 -0.21186,3.00757 -5.24287,2.97827 -2.20093,-0.0128 -4.17007,-0.0911 -4.37585,-0.17391 z m -8.92257,-14.70706 c 0,-2.21352 0,-2.21352 -2.2135,-2.21352 -2.21351,0 -2.21351,0 -2.21351,2.21352 0,2.2135 0,2.2135 2.21351,2.2135 2.2135,0 2.2135,0 2.2135,-2.2135 z m -27.8486,2.72461 c -0.93668,-0.93667 -1.16918,-2.48842 -1.02995,-6.87422 0.10887,-3.43002 0.10887,-3.43002 1.06977,-4.28857 1.64176,-1.46691 4.96048,-1.10478 5.67457,0.61919 0.47733,1.15238 0.28175,10.16497 -0.23171,10.67734 -0.21455,0.2141 -1.32501,0.42541 -2.56449,0.48801 -2.00914,0.1015 -2.24531,0.0511 -2.91819,-0.62175 z m -74.18083,-5.25166 c -1.35519,-0.41081 -1.85781,-1.29576 -1.85781,-3.27104 0,-1.49723 0.1034,-1.78581 0.93907,-2.6215 0.89644,-0.89644 1.0255,-0.93357 2.8432,-0.81783 2.57363,0.16388 3.00581,0.68746 3.00581,3.64148 0,2.25376 -0.38213,3.08371 -1.42297,3.09054 -0.27246,0.002 -0.96024,0.0621 -1.52837,0.13418 -0.56813,0.0719 -1.45865,0.002 -1.97893,-0.15583 z m 11.50072,-10e-4 c -1.16211,-0.35298 -1.84829,-1.55261 -1.84829,-3.23134 0,-2.3726 1.13385,-3.52046 3.48723,-3.5303 0.86287,-0.003 1.83698,0.13694 2.1647,0.31232 0.70243,0.37594 1.43197,1.97798 1.42964,3.13946 -0.002,1.27882 -0.55505,2.95857 -1.0335,3.14216 -0.91371,0.35063 -3.28566,0.44534 -4.19978,0.1677 z m 17.42244,10e-4 c -1.36529,-0.41386 -1.85782,-1.29311 -1.85782,-3.31644 0,-1.53102 0.10206,-1.82995 0.89639,-2.62423 0.85163,-0.85164 0.99356,-0.89019 2.8432,-0.77242 2.6212,0.16691 3.0485,0.6777 3.0485,3.6442 0,2.25376 -0.38214,3.08371 -1.42297,3.09054 -0.27248,0.002 -0.96024,0.0621 -1.52837,0.13418 -0.56814,0.0719 -1.45865,0.002 -1.97893,-0.15583 z"
       id="path12" /><path
       d="m 371.8352,276.14774 c 0,0 0.87183,0.0779 2.39309,0.47852 1.42958,0.37612 2.31075,0.78218 2.31075,0.78218 -0.50576,1.12636 -0.0868,2.47514 1.00557,3.10615 1.0928,0.63076 2.47076,0.3192 3.19301,-0.68263 0,0 0.71629,0.50322 1.83344,1.6108 1.04955,1.04071 1.61054,1.83331 1.61054,1.83331 -1.0017,0.72249 -1.31315,2.10034 -0.6825,3.19289 0.6309,1.09256 1.98003,1.51145 3.10651,1.00571 0,0 0.36814,0.79309 0.78182,2.31073 0.38898,1.42605 0.47803,2.39226 0.47803,2.39226 -1.22835,0.12532 -2.18706,1.16258 -2.18717,2.424 0,1.26179 0.95882,2.29922 2.18752,2.42401 0,0 -0.0778,0.87183 -0.47838,2.39309 -0.37624,1.42933 -0.78231,2.31147 -0.78231,2.31147 -1.12648,-0.50635 -2.47573,-0.0872 -3.10627,1.00557 -0.63087,1.09233 -0.31907,2.47029 0.68227,3.19289 0,0 -0.50297,0.71532 -1.61044,1.83246 -1.04046,1.04981 -1.83271,1.6102 -1.83271,1.6102 -0.7226,-1.00134 -2.10031,-1.31279 -3.19262,-0.68238 -1.09269,0.63101 -1.51183,1.98039 -1.00548,3.10662 0,0 -0.79405,0.36863 -2.3118,0.78231 -1.42607,0.38874 -2.39287,0.47838 -2.39287,0.47838 -0.12495,-1.2287 -1.16235,-2.18752 -2.4239,-2.18766 -1.26161,1.7e-4 -2.29898,0.95896 -2.42424,2.18766 0,0 -0.96474,-0.0936 -2.39196,-0.47838 -1.39364,-0.37576 -2.31098,-0.78182 -2.31098,-0.78182 0.50601,-1.12647 0.087,-2.47573 -1.00557,-3.10651 -1.09239,-0.6309 -2.47046,-0.31919 -3.19293,0.6825 0,0 -0.7896,-0.56377 -1.83327,-1.61078 -1.01909,-1.02231 -1.6108,-1.8332 -1.6108,-1.8332 1.00177,-0.72236 1.31328,-2.10021 0.68268,-3.19289 -0.63087,-1.09243 -1.97984,-1.5117 -3.10631,-1.0057 0,0 -0.4017,-0.88226 -0.78213,-2.31074 -0.37149,-1.3949 -0.47838,-2.39213 -0.47838,-2.39213 1.22853,-0.12532 2.18752,-1.16282 2.18752,-2.42437 0,-1.26142 -0.95882,-2.29898 -2.18752,-2.42388 0,0 0.0936,-0.96559 0.47838,-2.39287 0.37565,-1.39383 0.78213,-2.31183 0.78213,-2.31183 1.12647,0.50649 2.47555,0.0874 3.10645,-1.00521 0.63076,-1.09268 0.31907,-2.47027 -0.68214,-3.19287 0,0 0.56335,-0.78911 1.60993,-1.83273 1.02248,-1.01925 1.83261,-1.61053 1.83261,-1.61053 0.72272,1.00145 2.10054,1.31326 3.19329,0.6825 1.09237,-0.6309 1.51158,-1.97991 1.00529,-3.1064 0,0 0.8831,-0.40181 2.31158,-0.78231 1.39473,-0.37141 2.39311,-0.47839 2.39311,-0.47839 0.12476,1.22873 1.16214,2.18742 2.42399,2.18755 1.26131,-1.5e-4 2.29875,-0.95871 2.42377,-2.18717 m 5.06956,22.59664 c -1.43054,2.46942 -4.10202,4.13061 -7.16129,4.13061 -4.56822,0 -8.27103,-3.70324 -8.27103,-8.27117 0,-4.56792 3.70281,-8.27103 8.27103,-8.27103 2.02813,0 3.88556,0.72985 5.32446,1.9415 l -10.13702,5.85395 2.75702,4.7753 15.11632,-8.72094 c -1.84253,-5.44473 -6.99375,-9.36385 -13.06078,-9.36385 -7.61332,0 -13.78507,6.17181 -13.78507,13.78507 0,7.61338 6.17175,13.78519 13.78507,13.78519 5.10059,0 9.55391,-2.76998 11.93819,-6.88737 z"
       style="fill:url(#linearGradient4182);fill-opacity:1;fill-rule:nonzero;stroke:none;stroke-width:0.352778"
       id="path4150"
       inkscape:connector-curvature="0" /></g></svg>
